<?xml version="1.0" encoding="UTF-8"?>
<svg version="1.1" xmlns="http://www.w3.org/2000/svg" width="512" height="512">
<path d="M0 0 C0.91164728 -0.00172116 1.82329456 -0.00344233 2.76256752 -0.00521564 C5.79469196 -0.0095533 8.82676153 -0.00660047 11.85888672 -0.00341797 C14.00238057 -0.00455996 16.14587427 -0.00603647 18.28936768 -0.00782776 C24.0223678 -0.01083752 29.75533851 -0.00661682 35.48833466 0.00021744 C39.02943395 0.00438378 42.57053265 0.00734696 46.1116333 0.01010132 C100.56057487 0.05817385 100.56057487 0.05817385 125.621521 0.39385986 C128.04647297 0.42562427 130.47148922 0.45284059 132.89654541 0.47528076 C136.18129057 0.50791852 139.4651339 0.55944755 142.74951172 0.61767578 C143.66661926 0.62407578 144.58372681 0.63047577 145.52862549 0.6370697 C155.66095009 0.87235838 162.40546984 3.72085246 169.74169922 10.71533203 C174.48427325 15.98675425 177.02936677 22.07113781 177.0477953 29.17282391 C177.05225314 29.9729354 177.05671098 30.77304689 177.06130391 31.59740418 C177.06111955 32.4706409 177.06093519 33.34387761 177.06074524 34.24357605 C177.06442193 35.17577715 177.06809862 36.10797825 177.07188672 37.06842786 C177.08292112 40.19967686 177.08676699 43.33089267 177.09057617 46.4621582 C177.09684098 48.70427557 177.1034878 50.94639189 177.11048889 53.18850708 C177.13152872 60.55811846 177.14189087 67.92773005 177.15185547 75.29736328 C177.15590298 77.83428775 177.1600199 80.37121212 177.16420555 82.90813637 C177.1810737 93.46051716 177.19570859 104.0128958 177.20295429 114.56528759 C177.20486409 117.30223276 177.20678444 120.03917791 177.20874023 122.77612305 C177.20922397 123.45635103 177.20970771 124.13657901 177.21020611 124.83741996 C177.21850405 135.85333196 177.24383815 146.86913528 177.27632091 157.88499983 C177.30941954 169.20225045 177.32707298 180.51942644 177.33059853 191.83673269 C177.33294946 198.18796726 177.34191591 204.53903002 177.36705971 210.89021873 C177.39033692 216.86645242 177.39457486 222.8424011 177.38429832 228.81866837 C177.38380278 231.00959153 177.39012859 233.2005287 177.40385437 235.39140892 C177.42157465 238.3880447 177.414466 241.38365778 177.40132141 244.3802948 C177.41229066 245.24237791 177.4232599 246.10446102 177.43456155 246.99266785 C177.34077389 255.8802577 173.91228627 262.87876741 167.90576172 269.33642578 C160.73626765 275.78897044 153.48107261 277.24267465 144.02653503 277.27656555 C143.35805599 277.28024224 142.68957695 277.28391893 142.00084096 277.28770703 C139.77407154 277.29866819 137.5473489 277.30257469 135.32055664 277.30639648 C133.71852981 277.31266671 132.11650442 277.319314 130.51448059 277.3263092 C125.26601155 277.34728029 120.01754244 277.35770304 114.76904297 277.36767578 C112.95833128 277.37172552 111.14761973 277.37584251 109.33690834 277.38002586 C100.83077914 277.39905991 92.32465853 277.41329635 83.81851214 277.42163783 C74.01398266 277.43141281 64.20967879 277.45774663 54.40522879 277.49813873 C46.81606839 277.52832735 39.22697258 277.54310919 31.63775331 277.54641885 C27.10969499 277.54876556 22.58187819 277.55767726 18.05388451 277.58288002 C13.79301218 277.60621493 9.53253954 277.61037235 5.2716198 277.60011864 C3.71281349 277.59962453 2.15398713 277.60590787 0.59524155 277.61967468 C-11.17075725 277.71773292 -19.54637323 276.21322796 -28.35986328 268.06689453 C-34.15001318 261.56935075 -35.23534902 254.45963494 -35.2335968 246.02157593 C-35.23727349 245.0779786 -35.24095018 244.13438127 -35.24473828 243.16219008 C-35.25579009 239.98637648 -35.25962152 236.81059559 -35.26342773 233.63476562 C-35.26969129 231.3632395 -35.276338 229.0917144 -35.28334045 226.82019043 C-35.30076105 220.63814632 -35.3113053 214.45610995 -35.31954598 208.27404737 C-35.32469433 204.41235819 -35.33077017 200.55067141 -35.33705711 196.68898392 C-35.35392863 185.99338459 -35.36856293 175.29778868 -35.37580585 164.60217857 C-35.3777157 161.8269081 -35.37963603 159.05163763 -35.3815918 156.27636719 C-35.38207554 155.58660186 -35.38255928 154.89683653 -35.38305768 154.18616922 C-35.39135384 143.01823096 -35.4166835 131.85039996 -35.44917247 120.68250851 C-35.48227029 109.21160509 -35.49992455 97.74078164 -35.5034501 86.26982558 C-35.50580133 79.8313866 -35.51477152 73.3931171 -35.53991127 66.95472336 C-35.56318727 60.89560571 -35.5674269 54.83676917 -35.55714989 48.77761841 C-35.55665429 46.55605764 -35.56298157 44.33448306 -35.57670593 42.11296463 C-35.59442293 39.0746788 -35.58731906 36.03740199 -35.57417297 32.99911499 C-35.58514222 32.12467692 -35.59611147 31.25023885 -35.60741311 30.34930265 C-35.51504619 21.47721916 -32.14222394 14.3935753 -26.14892578 7.92236328 C-18.35665907 1.14840416 -9.90377764 -0.02355426 0 0 Z M-2.08642578 47.12939453 C-2.48485493 49.76203393 -2.64858273 51.96951622 -2.61767578 54.59814453 C-2.62341614 55.67412903 -2.62341614 55.67412903 -2.62927246 56.77185059 C-2.63198805 58.28476367 -2.62465133 59.79772398 -2.60791016 61.31054688 C-2.58649129 63.62232429 -2.60771929 65.93099466 -2.63330078 68.24267578 C-2.63065744 69.71533887 -2.62553231 71.18800003 -2.61767578 72.66064453 C-2.62577271 73.34928589 -2.63386963 74.03792725 -2.64221191 74.74743652 C-2.58107239 77.88703919 -2.35513891 79.77120426 -0.44981289 82.31097317 C2.62146868 84.67405791 4.39208668 84.63451074 8.24534607 84.64405823 C10.19904617 84.66314491 10.19904617 84.66314491 12.19221497 84.68261719 C13.63376036 84.67643486 15.07530399 84.66982883 16.5168457 84.6628418 C18.03640583 84.66989982 19.55595892 84.67864434 21.07550049 84.68894958 C25.20161583 84.71146742 29.32734804 84.7084983 33.45350146 84.69962811 C36.89792237 84.69452075 40.3422711 84.70180877 43.78668457 84.70910019 C51.91245989 84.72610696 60.03804746 84.72252577 68.16381836 84.70581055 C76.54708832 84.68888862 84.92983761 84.70472273 93.31305069 84.73703343 C100.51064134 84.76372363 107.70806986 84.77100689 114.90570503 84.76251835 C119.20452653 84.75758738 123.50303472 84.75981363 127.80181694 84.78030586 C131.84446968 84.7986542 135.88637319 84.79271546 139.9289856 84.76810646 C141.41205025 84.76309573 142.89517191 84.76659528 144.37819099 84.77925491 C146.40368388 84.79517653 148.42935844 84.77721923 150.45481873 84.75758362 C151.58803779 84.75699731 152.72125685 84.756411 153.88881588 84.75580692 C157.88839943 83.92751308 159.39357144 82.27722532 161.91357422 79.12939453 C162.67734797 75.74627536 162.67734797 75.74627536 162.57763672 72.03564453 C162.58242035 71.36650024 162.58720398 70.69735596 162.59213257 70.00793457 C162.59552078 68.59934119 162.58639344 67.19066801 162.56542969 65.78222656 C162.5386371 63.63443567 162.56520187 61.491868 162.59716797 59.34423828 C162.59386366 57.97052891 162.58745698 56.59682277 162.57763672 55.22314453 C162.56917725 53.36206055 162.56917725 53.36206055 162.56054688 51.46337891 C161.72643851 47.16504541 160.28053767 45.87035365 156.91357422 43.12939453 C153.84319837 42.38718398 153.84319837 42.38718398 150.45481873 42.50120544 C148.49688889 42.4822245 148.49688889 42.4822245 146.49940491 42.46286011 C145.05990203 42.47417548 143.62040311 42.48600292 142.1809082 42.49829102 C140.6595781 42.493151 139.13825396 42.4858691 137.61694336 42.47660828 C133.49084497 42.45809765 129.36539294 42.47102966 125.23932147 42.49069858 C120.92101971 42.5070864 116.60275885 42.49827214 112.28443909 42.49317932 C105.03384069 42.48865899 97.78350033 42.50452557 90.53295898 42.5324707 C82.14912874 42.56453452 73.76576357 42.56450207 65.38190025 42.54725593 C57.31674136 42.53139628 49.25175306 42.53811996 41.18660164 42.55519295 C37.75403366 42.56206729 34.32160226 42.56102715 30.88903618 42.55364799 C26.84807131 42.54599071 22.80763627 42.55809246 18.76676178 42.5854969 C17.28328843 42.59238731 15.79976565 42.59247164 14.31629372 42.58528137 C12.2926393 42.57660256 10.26892253 42.59496149 8.24534607 42.61473083 C7.11250403 42.61753776 5.979662 42.62034468 4.81249142 42.62323666 C1.24819045 43.24557213 0.06404114 44.26285674 -2.08642578 47.12939453 Z M3.91357422 120.12939453 C3.2792309 123.71961631 3.2792309 123.71961631 3.41357422 127.62939453 C3.40326172 128.93908203 3.39294922 130.24876953 3.38232422 131.59814453 C4.00482169 135.73592183 4.62298438 136.65076842 7.91357422 139.12939453 C11.22821795 139.74488822 11.22821795 139.74488822 14.94482422 139.66064453 C15.61775513 139.66447144 16.29068604 139.66829834 16.98400879 139.67224121 C18.40276592 139.67495583 19.82157349 139.66762587 21.24023438 139.65087891 C23.40722625 139.62945728 25.57090373 139.65068991 27.73779297 139.67626953 C29.11931067 139.67362617 30.50082632 139.668501 31.88232422 139.66064453 C33.76081055 139.65387695 33.76081055 139.65387695 35.67724609 139.64697266 C39.47410407 139.03975035 40.67156059 138.20666814 42.91357422 135.12939453 C43.54791753 131.53917275 43.54791753 131.53917275 43.41357422 127.62939453 C43.42388672 126.31970703 43.43419922 125.01001953 43.44482422 123.66064453 C42.82232675 119.52286723 42.20416405 118.60802064 38.91357422 116.12939453 C35.59893049 115.51390085 35.59893049 115.51390085 31.88232422 115.59814453 C31.20939331 115.59431763 30.5364624 115.59049072 29.84313965 115.58654785 C28.42438251 115.58383324 27.00557495 115.59116319 25.58691406 115.60791016 C23.41992219 115.62933178 21.25624471 115.60809915 19.08935547 115.58251953 C17.70783776 115.58516289 16.32632211 115.59028806 14.94482422 115.59814453 C13.06633789 115.60491211 13.06633789 115.60491211 11.14990234 115.61181641 C7.35304437 116.21903871 6.15558784 117.05212093 3.91357422 120.12939453 Z M59.91357422 120.12939453 C59.2792309 123.71961631 59.2792309 123.71961631 59.41357422 127.62939453 C59.40326172 128.93908203 59.39294922 130.24876953 59.38232422 131.59814453 C60.00482169 135.73592183 60.62298438 136.65076842 63.91357422 139.12939453 C67.22821795 139.74488822 67.22821795 139.74488822 70.94482422 139.66064453 C71.61775513 139.66447144 72.29068604 139.66829834 72.98400879 139.67224121 C74.40276592 139.67495583 75.82157349 139.66762587 77.24023438 139.65087891 C79.40722625 139.62945728 81.57090373 139.65068991 83.73779297 139.67626953 C85.11931067 139.67362617 86.50082632 139.668501 87.88232422 139.66064453 C89.76081055 139.65387695 89.76081055 139.65387695 91.67724609 139.64697266 C95.47410407 139.03975035 96.67156059 138.20666814 98.91357422 135.12939453 C99.54791753 131.53917275 99.54791753 131.53917275 99.41357422 127.62939453 C99.42388672 126.31970703 99.43419922 125.01001953 99.44482422 123.66064453 C98.82232675 119.52286723 98.20416405 118.60802064 94.91357422 116.12939453 C91.59893049 115.51390085 91.59893049 115.51390085 87.88232422 115.59814453 C87.20939331 115.59431763 86.5364624 115.59049072 85.84313965 115.58654785 C84.42438251 115.58383324 83.00557495 115.59116319 81.58691406 115.60791016 C79.41992219 115.62933178 77.25624471 115.60809915 75.08935547 115.58251953 C73.70783776 115.58516289 72.32632211 115.59028806 70.94482422 115.59814453 C69.06633789 115.60491211 69.06633789 115.60491211 67.14990234 115.61181641 C63.35304437 116.21903871 62.15558784 117.05212093 59.91357422 120.12939453 Z M115.91357422 120.12939453 C115.2792309 123.71961631 115.2792309 123.71961631 115.41357422 127.62939453 C115.40326172 128.93908203 115.39294922 130.24876953 115.38232422 131.59814453 C116.00482169 135.73592183 116.62298438 136.65076842 119.91357422 139.12939453 C123.22821795 139.74488822 123.22821795 139.74488822 126.94482422 139.66064453 C127.61775513 139.66447144 128.29068604 139.66829834 128.98400879 139.67224121 C130.40276592 139.67495583 131.82157349 139.66762587 133.24023438 139.65087891 C135.40722625 139.62945728 137.57090373 139.65068991 139.73779297 139.67626953 C141.11931067 139.67362617 142.50082632 139.668501 143.88232422 139.66064453 C145.76081055 139.65387695 145.76081055 139.65387695 147.67724609 139.64697266 C151.47410407 139.03975035 152.67156059 138.20666814 154.91357422 135.12939453 C155.54791753 131.53917275 155.54791753 131.53917275 155.41357422 127.62939453 C155.42388672 126.31970703 155.43419922 125.01001953 155.44482422 123.66064453 C154.82232675 119.52286723 154.20416405 118.60802064 150.91357422 116.12939453 C147.59893049 115.51390085 147.59893049 115.51390085 143.88232422 115.59814453 C143.20939331 115.59431763 142.5364624 115.59049072 141.84313965 115.58654785 C140.42438251 115.58383324 139.00557495 115.59116319 137.58691406 115.60791016 C135.41992219 115.62933178 133.25624471 115.60809915 131.08935547 115.58251953 C129.70783776 115.58516289 128.32632211 115.59028806 126.94482422 115.59814453 C125.06633789 115.60491211 125.06633789 115.60491211 123.14990234 115.61181641 C119.35304437 116.21903871 118.15558784 117.05212093 115.91357422 120.12939453 Z M3.91357422 168.12939453 C3.24182352 171.71769088 3.24182352 171.71769088 3.35107422 175.62939453 C3.32916016 176.93908203 3.30724609 178.24876953 3.28466797 179.59814453 C3.5862936 183.20065231 3.5862936 183.20065231 6.03686523 185.31689453 C9.49359902 187.49484511 11.50861192 187.64480693 15.56982422 187.66064453 C17.47441406 187.66837891 17.47441406 187.66837891 19.41748047 187.67626953 C21.39554688 187.65306641 21.39554688 187.65306641 23.41357422 187.62939453 C24.73228516 187.64486328 26.05099609 187.66033203 27.40966797 187.67626953 C28.67939453 187.67111328 29.94912109 187.66595703 31.25732422 187.66064453 C32.41425781 187.65613281 33.57119141 187.65162109 34.76318359 187.64697266 C38.56874133 187.02175703 40.24489354 185.87877695 42.91357422 183.12939453 C43.66847689 179.54456121 43.66847689 179.54456121 43.47607422 175.62939453 C43.47736328 174.31970703 43.47865234 173.01001953 43.47998047 171.66064453 C42.81886585 167.53893685 42.19593327 166.60408059 38.91357422 164.12939453 C35.59893049 163.51390085 35.59893049 163.51390085 31.88232422 163.59814453 C31.20939331 163.59431763 30.5364624 163.59049072 29.84313965 163.58654785 C28.42438251 163.58383324 27.00557495 163.59116319 25.58691406 163.60791016 C23.41992219 163.62933178 21.25624471 163.60809915 19.08935547 163.58251953 C17.70783776 163.58516289 16.32632211 163.59028806 14.94482422 163.59814453 C13.06633789 163.60491211 13.06633789 163.60491211 11.14990234 163.61181641 C7.35248222 164.21912862 6.15769355 165.05347145 3.91357422 168.12939453 Z M59.91357422 168.12939453 C59.24182352 171.71769088 59.24182352 171.71769088 59.35107422 175.62939453 C59.32916016 176.93908203 59.30724609 178.24876953 59.28466797 179.59814453 C59.5862936 183.20065231 59.5862936 183.20065231 62.03686523 185.31689453 C65.49359902 187.49484511 67.50861192 187.64480693 71.56982422 187.66064453 C73.47441406 187.66837891 73.47441406 187.66837891 75.41748047 187.67626953 C77.39554688 187.65306641 77.39554688 187.65306641 79.41357422 187.62939453 C80.73228516 187.64486328 82.05099609 187.66033203 83.40966797 187.67626953 C84.67939453 187.67111328 85.94912109 187.66595703 87.25732422 187.66064453 C88.41425781 187.65613281 89.57119141 187.65162109 90.76318359 187.64697266 C94.56874133 187.02175703 96.24489354 185.87877695 98.91357422 183.12939453 C99.66847689 179.54456121 99.66847689 179.54456121 99.47607422 175.62939453 C99.47736328 174.31970703 99.47865234 173.01001953 99.47998047 171.66064453 C98.81886585 167.53893685 98.19593327 166.60408059 94.91357422 164.12939453 C91.59893049 163.51390085 91.59893049 163.51390085 87.88232422 163.59814453 C87.20939331 163.59431763 86.5364624 163.59049072 85.84313965 163.58654785 C84.42438251 163.58383324 83.00557495 163.59116319 81.58691406 163.60791016 C79.41992219 163.62933178 77.25624471 163.60809915 75.08935547 163.58251953 C73.70783776 163.58516289 72.32632211 163.59028806 70.94482422 163.59814453 C69.06633789 163.60491211 69.06633789 163.60491211 67.14990234 163.61181641 C63.35248222 164.21912862 62.15769355 165.05347145 59.91357422 168.12939453 Z M115.91357422 168.12939453 C115.24182352 171.71769088 115.24182352 171.71769088 115.35107422 175.62939453 C115.32916016 176.93908203 115.30724609 178.24876953 115.28466797 179.59814453 C115.5862936 183.20065231 115.5862936 183.20065231 118.03686523 185.31689453 C121.49359902 187.49484511 123.50861192 187.64480693 127.56982422 187.66064453 C129.47441406 187.66837891 129.47441406 187.66837891 131.41748047 187.67626953 C133.39554688 187.65306641 133.39554688 187.65306641 135.41357422 187.62939453 C136.73228516 187.64486328 138.05099609 187.66033203 139.40966797 187.67626953 C140.67939453 187.67111328 141.94912109 187.66595703 143.25732422 187.66064453 C144.41425781 187.65613281 145.57119141 187.65162109 146.76318359 187.64697266 C150.56874133 187.02175703 152.24489354 185.87877695 154.91357422 183.12939453 C155.66847689 179.54456121 155.66847689 179.54456121 155.47607422 175.62939453 C155.47736328 174.31970703 155.47865234 173.01001953 155.47998047 171.66064453 C154.81886585 167.53893685 154.19593327 166.60408059 150.91357422 164.12939453 C147.59893049 163.51390085 147.59893049 163.51390085 143.88232422 163.59814453 C143.20939331 163.59431763 142.5364624 163.59049072 141.84313965 163.58654785 C140.42438251 163.58383324 139.00557495 163.59116319 137.58691406 163.60791016 C135.41992219 163.62933178 133.25624471 163.60809915 131.08935547 163.58251953 C129.70783776 163.58516289 128.32632211 163.59028806 126.94482422 163.59814453 C125.06633789 163.60491211 125.06633789 163.60491211 123.14990234 163.61181641 C119.35248222 164.21912862 118.15769355 165.05347145 115.91357422 168.12939453 Z M5.49365234 213.93969727 C3.17710525 217.15000488 3.34722215 219.71569638 3.35107422 223.62939453 C3.32916016 224.93908203 3.30724609 226.24876953 3.28466797 227.59814453 C3.5862936 231.20065231 3.5862936 231.20065231 6.03686523 233.31689453 C9.49359902 235.49484511 11.50861192 235.64480693 15.56982422 235.66064453 C17.47441406 235.66837891 17.47441406 235.66837891 19.41748047 235.67626953 C21.39554688 235.65306641 21.39554688 235.65306641 23.41357422 235.62939453 C24.73228516 235.64486328 26.05099609 235.66033203 27.40966797 235.67626953 C28.67939453 235.67111328 29.94912109 235.66595703 31.25732422 235.66064453 C32.41425781 235.65613281 33.57119141 235.65162109 34.76318359 235.64697266 C38.57457481 235.02079865 40.25085555 233.89539775 42.91357422 231.12939453 C43.37169851 228.20885219 43.52822071 225.96171853 43.41357422 223.06689453 C43.41615234 222.34695313 43.41873047 221.62701172 43.42138672 220.88525391 C43.357526 216.9623533 43.357526 216.9623533 41.83129883 213.42822266 C38.87932347 211.42892171 36.29095687 211.72228084 32.76123047 211.69580078 C32.06468857 211.69055893 31.36814667 211.68531708 30.65049744 211.67991638 C29.17871431 211.67349928 27.70687988 211.67482924 26.23510742 211.68334961 C23.98702265 211.69185312 21.74148556 211.66311132 19.49365234 211.63134766 C18.06201248 211.62973528 16.63036813 211.63031387 15.19873047 211.63330078 C13.89814697 211.63144775 12.59756348 211.62959473 11.25756836 211.62768555 C7.86673335 211.86653944 7.86673335 211.86653944 5.49365234 213.93969727 Z M61.49365234 213.93969727 C59.17710525 217.15000488 59.34722215 219.71569638 59.35107422 223.62939453 C59.32916016 224.93908203 59.30724609 226.24876953 59.28466797 227.59814453 C59.5862936 231.20065231 59.5862936 231.20065231 62.03686523 233.31689453 C65.49359902 235.49484511 67.50861192 235.64480693 71.56982422 235.66064453 C73.47441406 235.66837891 73.47441406 235.66837891 75.41748047 235.67626953 C77.39554688 235.65306641 77.39554688 235.65306641 79.41357422 235.62939453 C80.73228516 235.64486328 82.05099609 235.66033203 83.40966797 235.67626953 C84.67939453 235.67111328 85.94912109 235.66595703 87.25732422 235.66064453 C88.41425781 235.65613281 89.57119141 235.65162109 90.76318359 235.64697266 C94.57457481 235.02079865 96.25085555 233.89539775 98.91357422 231.12939453 C99.37169851 228.20885219 99.52822071 225.96171853 99.41357422 223.06689453 C99.41615234 222.34695313 99.41873047 221.62701172 99.42138672 220.88525391 C99.357526 216.9623533 99.357526 216.9623533 97.83129883 213.42822266 C94.87932347 211.42892171 92.29095687 211.72228084 88.76123047 211.69580078 C88.06468857 211.69055893 87.36814667 211.68531708 86.65049744 211.67991638 C85.17871431 211.67349928 83.70687988 211.67482924 82.23510742 211.68334961 C79.98702265 211.69185312 77.74148556 211.66311132 75.49365234 211.63134766 C74.06201248 211.62973528 72.63036813 211.63031387 71.19873047 211.63330078 C69.89814697 211.63144775 68.59756348 211.62959473 67.25756836 211.62768555 C63.86673335 211.86653944 63.86673335 211.86653944 61.49365234 213.93969727 Z M117.49365234 213.93969727 C115.17710525 217.15000488 115.34722215 219.71569638 115.35107422 223.62939453 C115.32916016 224.93908203 115.30724609 226.24876953 115.28466797 227.59814453 C115.5862936 231.20065231 115.5862936 231.20065231 118.03686523 233.31689453 C121.49359902 235.49484511 123.50861192 235.64480693 127.56982422 235.66064453 C129.47441406 235.66837891 129.47441406 235.66837891 131.41748047 235.67626953 C133.39554688 235.65306641 133.39554688 235.65306641 135.41357422 235.62939453 C136.73228516 235.64486328 138.05099609 235.66033203 139.40966797 235.67626953 C140.67939453 235.67111328 141.94912109 235.66595703 143.25732422 235.66064453 C144.41425781 235.65613281 145.57119141 235.65162109 146.76318359 235.64697266 C150.57457481 235.02079865 152.25085555 233.89539775 154.91357422 231.12939453 C155.37169851 228.20885219 155.52822071 225.96171853 155.41357422 223.06689453 C155.41615234 222.34695313 155.41873047 221.62701172 155.42138672 220.88525391 C155.357526 216.9623533 155.357526 216.9623533 153.83129883 213.42822266 C150.87932347 211.42892171 148.29095687 211.72228084 144.76123047 211.69580078 C144.06468857 211.69055893 143.36814667 211.68531708 142.65049744 211.67991638 C141.17871431 211.67349928 139.70687988 211.67482924 138.23510742 211.68334961 C135.98702265 211.69185312 133.74148556 211.66311132 131.49365234 211.63134766 C130.06201248 211.62973528 128.63036813 211.63031387 127.19873047 211.63330078 C125.89814697 211.63144775 124.59756348 211.62959473 123.25756836 211.62768555 C119.86673335 211.86653944 119.86673335 211.86653944 117.49365234 213.93969727 Z " fill="#837683" transform="translate(56.08642578125,218.87060546875)"/>
<path d="M0 0 C0.33 0 0.66 0 1 0 C1.14695313 0.76183594 1.29390625 1.52367187 1.4453125 2.30859375 C3.7080093 12.72480142 7.95083358 20.97945926 17 27 C23.05875168 30.25358094 28.75038591 32.11651547 35.66902637 32.13701439 C36.58321427 32.14208893 37.49740217 32.14716347 38.43929273 32.15239179 C39.43480907 32.15288955 40.43032541 32.15338731 41.45600891 32.15390015 C43.05266106 32.16047353 43.05266106 32.16047353 44.6815688 32.1671797 C48.25426707 32.18055217 51.82694068 32.18674304 55.3996582 32.19287109 C57.95881257 32.2007731 60.51796583 32.20904211 63.07711792 32.21765137 C70.75922476 32.24159193 78.44133037 32.25679407 86.12346271 32.26971143 C88.29379436 32.27342554 90.46412538 32.27739857 92.6344564 32.2814641 C106.11852522 32.3066966 119.60259511 32.32874455 133.08668232 32.34119225 C136.20744645 32.34412181 139.32821056 32.3470835 142.44897461 32.35009766 C143.22459907 32.35084371 144.00022354 32.35158976 144.79935177 32.35235842 C157.36785921 32.3650159 169.93622532 32.39824732 182.50466666 32.43989949 C195.41412619 32.48233066 208.32351334 32.50588839 221.23304242 32.51111281 C228.4790749 32.51452497 235.72488622 32.52625744 242.97084999 32.55921555 C249.7859665 32.59016391 256.60063024 32.5956264 263.4158287 32.58383179 C265.91678872 32.58361064 268.41776638 32.59194966 270.91866493 32.60948563 C274.33392255 32.63212945 277.74777569 32.62390283 281.16304016 32.60800171 C282.15186434 32.6218838 283.14068851 32.63576588 284.15947706 32.65006864 C290.04863968 32.58254247 293.66578187 31.59180098 298.43567437 28.07237494 C300 27 300 27 302 27 C302 28.65 302 30.3 302 32 C305.63 32 309.26 32 313 32 C313 56.42 313 80.84 313 106 C304.83636719 106.05607422 304.83636719 106.05607422 296.5078125 106.11328125 C293.04424016 106.14358445 289.58071775 106.17474765 286.1171875 106.20898438 C280.62893294 106.2631542 275.14077714 106.3142698 269.65234375 106.34643555 C265.22364372 106.37259081 260.79527844 106.41307813 256.36678696 106.46318626 C254.68369612 106.47977278 253.00054749 106.49133791 251.31738663 106.49761391 C235.7116646 106.56164893 222.80245584 108.98710125 210.91796875 119.8515625 C202.87659361 128.85921286 198.41002603 139.72326909 198.5 151.6875 C198.50499512 152.5630957 198.50999023 153.43869141 198.51513672 154.34082031 C198.8431614 166.64287703 203.48359942 176.30815787 212.03125 185.0859375 C221.04514557 193.62374704 231.35835276 198.27997186 243.86303711 198.31884766 C244.61508423 198.32889328 245.36713135 198.3389389 246.14196777 198.34928894 C248.60375267 198.37994048 251.06542975 198.39710535 253.52734375 198.4140625 C255.24370744 198.4327887 256.96006207 198.45236318 258.67640686 198.4727478 C263.17585895 198.52392171 267.67534084 198.56362601 272.17492676 198.60089111 C276.77359296 198.64102352 281.37213678 198.69207359 285.97070312 198.7421875 C294.98038259 198.83877208 303.9901314 198.9232324 313 199 C313.10164192 205.2986875 313.17156661 211.59716253 313.21972656 217.89648438 C313.23980888 220.03816634 313.26708037 222.1797937 313.30175781 224.32128906 C313.35042398 227.40443415 313.3730029 230.48685262 313.390625 233.5703125 C313.41127014 234.52366486 313.43191528 235.47701721 313.45318604 236.45925903 C313.45507962 242.10308735 313.00823261 245.66758468 309 250 C304.68220054 252.31678988 300.4746509 252.27644597 295.69206238 252.24050903 C294.4422125 252.24307231 294.4422125 252.24307231 293.16711313 252.24568737 C290.3771902 252.24897966 287.58750817 252.23798284 284.79760742 252.22705078 C282.7968954 252.22648661 280.79618297 252.22680334 278.79547119 252.22793579 C273.36408608 252.22851008 267.93278915 252.21674342 262.50142455 252.20278788 C256.8252798 252.19029321 251.14913307 252.18911101 245.47297668 252.18673706 C234.72437761 252.18051858 223.97581917 252.16410276 213.227238 252.14403808 C200.99035934 252.12169056 188.75347874 252.11068853 176.51658475 252.10064721 C151.3443673 252.07973687 126.17218592 252.04455371 101 252 C100.99503478 250.86831563 100.99503478 250.86831563 100.98996925 249.71376896 C100.90865806 231.33441289 100.81653909 212.95513987 100.71247292 194.57589817 C100.66240589 185.68774184 100.61596239 176.79959446 100.578125 167.91137695 C100.54512681 160.16209297 100.50525259 152.41287967 100.45720994 144.66367382 C100.43202261 140.56264153 100.41021863 136.46165567 100.39665604 132.36056709 C100.3837649 128.49542288 100.36163549 124.63043849 100.33261681 120.76538277 C100.32359587 119.35174291 100.31786371 117.93807736 100.31578636 116.52441025 C100.52776471 102.92990044 100.52776471 102.92990044 95.4375 90.625 C93.82505884 88.29963976 92.91191903 86.73575708 92 84 C90.16352951 82.9162879 90.16352951 82.9162879 88 82 C87.03775009 81.37421806 87.03775009 81.37421806 86.05606079 80.73579407 C77.83009516 75.76459792 69.23843244 76.26804219 59.9609375 76.29296875 C58.22643308 76.27983379 56.49194391 76.26452409 54.75747681 76.24714661 C50.22340739 76.20749364 45.6897399 76.19711896 41.15551758 76.19311523 C35.69865146 76.18209513 30.24199581 76.13422608 24.78529358 76.09262848 C16.52335013 76.03372394 8.2625122 76.02124536 0 76 C0 50.92 0 25.84 0 0 Z " fill="#E1A56D" transform="translate(150,144)"/>
<path d="M0 0 C0.3810791 0.66193359 0.7621582 1.32386719 1.15478516 2.00585938 C2.97750122 5.17097015 4.80097008 8.33564627 6.625 11.5 C6.96290558 12.08622131 7.30081116 12.67244263 7.6489563 13.27642822 C12.3855068 21.49146796 17.14840099 29.6904478 21.9375 37.875 C27.35734661 47.14153694 32.69914848 56.45096924 38.01318359 65.77838135 C42.77275029 74.1309148 47.58207342 82.4527185 52.4375 90.75 C53.57445139 92.70038524 54.71117833 94.65090134 55.84765625 96.6015625 C57.84077724 100.0219685 59.8494503 103.43233057 61.87109375 106.8359375 C62.70633797 108.26526941 63.54101814 109.69493116 64.375 111.125 C64.75068115 111.74600586 65.1263623 112.36701172 65.51342773 113.00683594 C67.72124226 116.83435486 68.63223684 119.59820011 68 124 C66.04137029 127.94587513 64.18815708 129.87071974 60.37109375 132.0234375 C59.43023926 132.56266846 58.48938477 133.10189941 57.52001953 133.6574707 C55.99417236 134.50764771 55.99417236 134.50764771 54.4375 135.375 C52.86524658 136.27061646 52.86524658 136.27061646 51.26123047 137.18432617 C49.02000346 138.46093464 46.7760923 139.7328401 44.52978516 141.00048828 C40.90573164 143.04811957 37.3008281 145.1280453 33.69921875 147.21484375 C33.10481491 147.55912415 32.51041107 147.90340454 31.897995 148.25811768 C30.7189985 148.94107906 29.54003784 149.62410229 28.3611145 150.30718994 C25.58894666 151.91243442 22.81443928 153.51359234 20.0390625 155.11328125 C19.11303223 155.64735596 18.18700195 156.18143066 17.23291016 156.73168945 C13.0091469 159.13082023 9.71427351 159.12943279 4.9296875 159.09765625 C4.13345978 159.0962413 3.33723206 159.09482635 2.51687622 159.09336853 C-0.0304538 159.08776345 -2.57769647 159.07521014 -5.125 159.0625 C-6.85025915 159.05748565 -8.57551967 159.05292263 -10.30078125 159.04882812 C-14.53388791 159.03779237 -18.76692914 159.02052436 -23 159 C-20.5849251 156.32186248 -17.98947088 154.6956489 -14.86328125 152.91796875 C-13.82155762 152.32185791 -12.77983398 151.72574707 -11.70654297 151.11157227 C-10.58650879 150.47662842 -9.46647461 149.84168457 -8.3125 149.1875 C-6.56453709 148.18840068 -4.81658128 147.18928857 -3.06915283 146.18925476 C-1.86760459 145.50178311 -0.66573708 144.81486919 0.53643799 144.12849426 C6.92302622 140.48033611 13.27531473 136.77446813 19.625 133.0625 C20.66744873 132.45365967 21.70989746 131.84481934 22.78393555 131.2175293 C25.18963931 129.81228181 27.59500771 128.40646467 30 127 C29.76095947 125.85011597 29.76095947 125.85011597 29.51708984 124.67700195 C28.24241579 118.07794579 27.68216723 111.32452611 31.3125 105.4375 C33.01560906 103.05928465 34.9247018 101.0537888 37 99 C27.30904444 81.55603708 27.30904444 81.55603708 17.375 64.25 C16.98650879 63.57912354 16.59801758 62.90824707 16.19775391 62.21704102 C14.04923243 58.56681908 11.73100509 55.23766214 9 52 C8.01 52.33 7.02 52.66 6 53 C-1.81466269 53.92696449 -6.99873292 53.24959383 -13.35546875 48.5078125 C-15 47 -15 47 -16 45 C-20.34561602 45.9459156 -23.91064947 48.01420309 -27.75 50.1875 C-28.53584473 50.62819824 -29.32168945 51.06889648 -30.13134766 51.52294922 C-37.60478958 55.73446208 -45.00816444 60.0659669 -52.40917969 64.40307617 C-60.24228207 68.98957991 -68.11298111 73.50721119 -76 78 C-85.72143706 83.53951839 -95.40895317 89.13375194 -105.06689453 94.78344727 C-112.32211726 99.02617273 -119.59353319 103.23998054 -126.875 107.4375 C-127.94886963 108.05657227 -129.02273926 108.67564453 -130.12915039 109.31347656 C-134.55350496 111.86322796 -138.97852587 114.41182081 -143.40380859 116.95996094 C-146.79038672 118.9102045 -150.17649584 120.86126012 -153.5625 122.8125 C-154.64063965 123.43318359 -155.7187793 124.05386719 -156.82958984 124.69335938 C-161.68211147 127.4909676 -166.52553671 130.30110853 -171.33984375 133.1640625 C-172.13640381 133.63739014 -172.93296387 134.11071777 -173.75366211 134.59838867 C-175.2061394 135.4642552 -176.65634118 136.33395536 -178.10375977 137.20825195 C-182.78197057 140 -182.78197057 140 -185 140 C-184.505 140.928125 -184.505 140.928125 -184 141.875 C-182.1975883 147.50753655 -182.49719107 153.32080634 -184 159 C-190.2979487 159.25407499 -196.59457366 159.42886704 -202.89648438 159.54931641 C-205.03858816 159.59953209 -207.18035039 159.66772347 -209.32128906 159.75439453 C-227.15888156 160.4582921 -227.15888156 160.4582921 -231.73339844 156.83496094 C-233.33293165 154.20476616 -234.26584322 151.97862966 -235 149 C-235.33 148.01 -235.66 147.02 -236 146 C-236.40398254 142.91963311 -236.65684782 140.95386132 -236 138 C-230.73561612 132.59966359 -224.4303877 129.15540261 -217.87710571 125.50958252 C-215.38659512 124.1239504 -212.90583216 122.72125573 -210.42424011 121.31973267 C-209.14984304 120.60024742 -207.87494873 119.88164223 -206.5995636 119.16390991 C-200.46838849 115.71159835 -194.38500009 112.17944197 -188.3125 108.625 C-187.33216797 108.05136719 -186.35183594 107.47773437 -185.34179688 106.88671875 C-183.45085423 105.77951366 -181.56021715 104.67178653 -179.66992188 103.56347656 C-177.1314455 102.07697302 -174.5897074 100.59622381 -172.046875 99.1171875 C-163.67155835 94.27147286 -163.67155835 94.27147286 -155.5625 89 C-150.7732706 85.72220041 -145.68952067 83.0102236 -140.60717773 80.22119141 C-134.21995594 76.70530127 -127.91387816 73.06356443 -121.625 69.375 C-112.78264438 64.19177087 -103.90578309 59.07312118 -95 54 C-85.27856294 48.46048161 -75.59104683 42.86624806 -65.93310547 37.21655273 C-58.67788254 32.97382715 -51.40645033 28.76004836 -44.125 24.5625 C-43.06128174 23.94922852 -41.99756348 23.33595703 -40.90161133 22.70410156 C-35.7774109 19.75084543 -30.65205281 16.79960456 -25.52600098 13.8495636 C-23.11782525 12.46340262 -20.71009301 11.07647251 -18.3024292 9.68942261 C-16.59741766 8.70760702 -14.8917333 7.72696016 -13.18603516 6.74633789 C-12.15655762 6.15328857 -11.12708008 5.56023926 -10.06640625 4.94921875 C-9.15834229 4.42674561 -8.25027832 3.90427246 -7.31469727 3.3659668 C-1.61090259 0 -1.61090259 0 0 0 Z " fill="#6CF4C2" transform="translate(409,17)"/>
<path d="M0 0 C2.90133716 1.25157943 4.68808507 3.56725009 6.875 5.80883789 C10.21782818 7.96408238 12.9430715 8.05040191 16.875 7.99633789 C17.90625 7.98989258 18.9375 7.98344727 20 7.97680664 C22.47148501 7.83241282 24.50312387 7.44666134 26.875 6.80883789 C32.11958664 15.21683992 37.19148787 23.70193825 42.09472656 32.31298828 C43.135432 34.13964828 44.18079679 35.96358676 45.2265625 37.78735352 C48.61611214 43.71605726 51.90912231 49.65540609 54.875 55.80883789 C54.1325 56.46883789 53.39 57.12883789 52.625 57.80883789 C48.90978279 61.51353041 46.54227881 66.21750361 45.23828125 71.28149414 C43.20780173 75.04573555 39.93040087 76.37409613 36.25 78.24633789 C34.60006893 79.12374336 32.95170991 80.00410951 31.3046875 80.88696289 C30.42264648 81.35682617 29.54060547 81.82668945 28.63183594 82.31079102 C23.81507601 84.92818731 19.09979388 87.71739007 14.375 90.49633789 C7.81737686 94.34049857 1.25479606 98.17509484 -5.33203125 101.96899414 C-5.92776947 102.31214157 -6.52350769 102.655289 -7.13729858 103.00883484 C-10.03592183 104.67775037 -12.9355494 106.34489428 -15.8359375 108.01074219 C-16.87621094 108.60927002 -17.91648437 109.20779785 -18.98828125 109.82446289 C-19.90907471 110.35330078 -20.82986816 110.88213867 -21.77856445 111.42700195 C-23.59562767 112.497086 -25.37041946 113.63911753 -27.125 114.80883789 C-29.82421875 115.00415039 -29.82421875 115.00415039 -32.8125 114.93383789 C-33.80636719 114.91579102 -34.80023438 114.89774414 -35.82421875 114.87915039 C-36.58347656 114.85594727 -37.34273437 114.83274414 -38.125 114.80883789 C-38.51553872 110.80581603 -38.30094081 109.08924356 -36.125 105.62133789 C-33.22371344 100.93144456 -33.24378836 96.15118345 -34.125 90.80883789 C-36.01488547 85.87514651 -39.01343928 83.61349554 -43.75 81.49633789 C-44.50539063 81.21145508 -45.26078125 80.92657227 -46.0390625 80.63305664 C-48.125 79.80883789 -48.125 79.80883789 -51.125 77.80883789 C-50.465 77.14883789 -49.805 76.48883789 -49.125 75.80883789 C-48.50644436 72.72795498 -48.5366796 69.89339622 -49.125 66.80883789 C-53.39269217 62.05340947 -58.9734896 62.03434421 -65.1015625 61.39868164 C-68.31387078 60.77199101 -69.60612123 59.78411248 -72.125 57.80883789 C-75.74557268 57.80215072 -75.74557268 57.80215072 -79.125 58.80883789 C-81.15543685 61.85449317 -81.36753915 62.72180578 -81.5625 66.18383789 C-81.8284837 69.25250166 -81.99432591 70.60498632 -83.6875 73.24633789 C-85.97278325 77.32010368 -85.74241999 81.25102968 -85.125 85.80883789 C-83.73385734 90.40668228 -81.89089267 93.17330993 -78.1875 96.24633789 C-75.39587727 97.6706352 -73.21868998 98.44487436 -70.125 98.80883789 C-70.785 99.69571289 -71.445 100.58258789 -72.125 101.49633789 C-74.15194787 104.8534703 -74.80285031 106.03224329 -74.125 109.80883789 C-73.135 111.45883789 -72.145 113.10883789 -71.125 114.80883789 C-77.065 114.80883789 -83.005 114.80883789 -89.125 114.80883789 C-88.795 112.49883789 -88.465 110.18883789 -88.125 107.80883789 C-90.39394197 104.57731447 -91.83610391 103.05400055 -95.75878906 102.30786133 C-99.93712115 102.92970187 -102.09224917 104.61600416 -105.4788208 107.03948975 C-118.23543663 116.03353015 -129.20470001 116.28734218 -144.375 115.55883789 C-146.59620663 115.49845431 -148.81757472 115.4437356 -151.0390625 115.39477539 C-156.40465263 115.26446572 -161.76403457 115.06534063 -167.125 114.80883789 C-167.10759766 113.37991211 -167.10759766 113.37991211 -167.08984375 111.92211914 C-167.08082031 110.66786133 -167.07179687 109.41360352 -167.0625 108.12133789 C-167.05089844 106.8799707 -167.03929687 105.63860352 -167.02734375 104.35961914 C-167.11021327 101.34648335 -167.41660551 98.7260845 -168.125 95.80883789 C-167.40248047 95.39746582 -166.67996094 94.98609375 -165.93554688 94.56225586 C-152.27461858 86.7803594 -138.63463683 78.96741473 -125.06396484 71.02880859 C-114.53804776 64.87346938 -103.97315833 58.78626678 -93.40722656 52.69995117 C-87.97840058 49.57203641 -82.55180719 46.44025341 -77.125 43.30883789 C-74.95834417 42.0588191 -72.7916775 40.80881911 -70.625 39.55883789 C-69.5525 38.94008789 -68.48 38.32133789 -67.375 37.68383789 C-57.625 32.05883789 -57.625 32.05883789 -54.37109375 30.18164062 C-52.2173828 28.9390777 -50.06373633 27.696403 -47.91015625 26.45361328 C-42.88815738 23.55569166 -37.86557193 20.6588044 -32.84057617 17.76608276 C-31.07454478 16.74936591 -29.30872569 15.73228131 -27.54296875 14.71508789 C-25.33765845 13.44482916 -23.13195784 12.17524771 -20.92578125 10.90649414 C-19.91902344 10.32641602 -18.91226563 9.74633789 -17.875 9.14868164 C-16.91078125 8.5955127 -15.9465625 8.04234375 -14.953125 7.47241211 C-13.04749151 6.35147059 -11.16192901 5.19577802 -9.296875 4.00854492 C-7.97429687 3.16912354 -7.97429687 3.16912354 -6.625 2.31274414 C-5.46484375 1.55392944 -5.46484375 1.55392944 -4.28125 0.77978516 C-2.125 -0.19116211 -2.125 -0.19116211 0 0 Z M-9.00390625 49.59790039 C-10.08994141 50.21020508 -11.17597656 50.82250977 -12.29492188 51.45336914 C-13.41447266 52.10692383 -14.53402344 52.76047852 -15.6875 53.43383789 C-16.81091797 54.06418945 -17.93433594 54.69454102 -19.09179688 55.34399414 C-24.42331824 58.39148288 -29.01924509 61.16090038 -33.125 65.80883789 C-33.83460213 69.59338257 -33.40301176 71.27598202 -31.625 74.68383789 C-28.80966178 77.07687538 -27.19621392 77.3705476 -23.55029297 77.26782227 C-18.35055827 76.28377745 -13.93626946 73.28951402 -9.4375 70.62133789 C-8.41849609 70.04319336 -7.39949219 69.46504883 -6.34960938 68.86938477 C0.94736451 64.66651639 0.94736451 64.66651639 6.875 58.80883789 C7.50627485 54.81076381 7.55417484 52.80147804 5.25 49.43383789 C0.06074943 45.88329803 -3.75421354 46.61096922 -9.00390625 49.59790039 Z " fill="#EBEFF0" transform="translate(392.125,61.191162109375)"/>
<path d="M0 0 C0.76384097 -0.00012053 1.52768194 -0.00024107 2.31466961 -0.00036526 C4.77515818 0.0003782 7.23556999 0.00798052 9.69604492 0.01586914 C11.21992964 0.01734032 12.74381487 0.01835995 14.2677002 0.0189209 C19.90397908 0.02415342 25.54024714 0.03811468 31.17651367 0.05102539 C43.77838867 0.07165039 56.38026367 0.09227539 69.36401367 0.11352539 C69.36401367 30.80352539 69.36401367 61.49352539 69.36401367 93.11352539 C50.73963867 93.26821289 50.73963867 93.26821289 31.73901367 93.42602539 C27.84652832 93.47154541 23.95404297 93.51706543 19.94360352 93.56396484 C15.11914062 93.58654785 15.11914062 93.58654785 12.84683228 93.59074402 C11.28987439 93.59832542 9.73294224 93.61570569 8.17617798 93.6414032 C-6.78378266 93.87558549 -19.19565082 91.63679994 -30.63598633 81.11352539 C-31.24829102 80.6146582 -31.8605957 80.11579102 -32.49145508 79.60180664 C-39.28803935 73.64541822 -44.92786608 63.12847101 -45.84472656 54.0456543 C-46.532194 38.86086002 -44.75054042 27.11515484 -34.53833008 15.07055664 C-24.93708877 5.19330429 -13.76353433 -0.0704074 0 0 Z M-11.01098633 35.61352539 C-11.54723633 36.43852539 -12.08348633 37.26352539 -12.63598633 38.11352539 C-13.25473633 39.01071289 -13.25473633 39.01071289 -13.88598633 39.92602539 C-15.64253874 45.04930327 -15.16857628 49.54584032 -12.94848633 54.36352539 C-10.46233308 58.85094384 -7.54173935 61.47827438 -2.63598633 63.11352539 C4.22125773 63.84480491 8.83002516 63.31935666 14.36401367 59.11352539 C18.06785487 54.33751963 19.80530379 50.42552921 19.70385742 44.30493164 C18.96738151 39.55593181 16.37908076 35.61401526 12.54370117 32.75805664 C10.86640669 31.786068 9.11732346 30.94055831 7.36401367 30.11352539 C6.70401367 29.78352539 6.04401367 29.45352539 5.36401367 29.11352539 C-1.26105694 28.32482651 -6.50999574 30.87564057 -11.01098633 35.61352539 Z " fill="#C48958" transform="translate(393.635986328125,249.886474609375)"/>
<path d="M0 0 C0.06956643 8.64932083 0.12284485 17.29854508 0.15543652 25.94808483 C0.17108035 29.96459536 0.19229492 33.98091422 0.22631836 37.99731445 C0.25895797 41.87470186 0.27686267 45.75190512 0.28463173 49.62941933 C0.29016701 51.10738333 0.30097619 52.58533746 0.31719017 54.06322289 C0.33902641 56.13636282 0.34196446 58.20874564 0.34057617 60.28198242 C0.35056892 62.05069954 0.35056892 62.05069954 0.36076355 63.85514832 C-0.15207566 68.32567551 -1.51551387 70.82066089 -5.03813171 73.61917877 C-9.14875741 75.53555002 -12.69859313 75.40605842 -17.18110657 75.36076355 C-18.10826153 75.36332682 -19.03541648 75.3658901 -19.99066705 75.36853105 C-23.0985283 75.37347389 -26.20590417 75.35696752 -29.3137207 75.34057617 C-31.54103077 75.33973001 -33.76834167 75.34020483 -35.99565125 75.34190369 C-42.04482214 75.34276548 -48.09381508 75.32510971 -54.14294457 75.30418181 C-60.4637107 75.28544583 -66.78448077 75.283667 -73.10527039 75.28010559 C-83.71515347 75.2718365 -94.32496616 75.25308958 -104.93481445 75.22631836 C-115.86221999 75.19877456 -126.78960777 75.17754256 -137.71704102 75.16479492 C-138.3907884 75.16400675 -139.06453578 75.16321858 -139.75869975 75.16240653 C-143.13874657 75.15849137 -146.51879352 75.15470026 -149.89884055 75.15097082 C-177.93260737 75.11987878 -205.96629617 75.06621981 -234 75 C-234 68.07 -234 61.14 -234 54 C-230.1863942 53.99120064 -230.1863942 53.99120064 -226.29574585 53.98222351 C-202.36909575 53.92559948 -178.44253633 53.85254185 -154.51598167 53.76428509 C-142.21427644 53.71930483 -129.9126003 53.67989527 -117.61083984 53.65356445 C-106.88958958 53.63060248 -96.16843122 53.59722455 -85.44725382 53.55129844 C-79.76960483 53.52734202 -74.092047 53.50862906 -68.4143486 53.50238609 C-63.07097272 53.49634624 -57.72783014 53.476386 -52.38454056 53.44572449 C-50.42298247 53.43692665 -48.46139392 53.43322528 -46.49981689 53.43499184 C-43.82165961 53.43664228 -41.14421551 53.41996484 -38.46615601 53.39872742 C-37.6898796 53.40357499 -36.9136032 53.40842257 -36.11380327 53.41341704 C-31.3438687 53.35099019 -28.05336782 52.52806525 -24 50 C-21.99903611 47.19298153 -21.73842812 44.81340158 -21.68115234 41.41503906 C-21.66128265 40.51440735 -21.64141296 39.61377563 -21.62094116 38.68585205 C-21.60938995 37.72217712 -21.59783875 36.7585022 -21.5859375 35.765625 C-21.56657135 34.77246277 -21.5472052 33.77930054 -21.5272522 32.75604248 C-21.46752678 29.58744871 -21.42109889 26.41881847 -21.375 23.25 C-21.33681377 21.10024467 -21.29776166 18.95050454 -21.2578125 16.80078125 C-21.16183109 11.53398915 -21.07676296 6.26710536 -21 1 C-17.68752012 0.83293193 -14.37501287 0.66641273 -11.0625 0.5 C-10.11697266 0.45230469 -9.17144531 0.40460938 -8.19726562 0.35546875 C-7.29814453 0.31035156 -6.39902344 0.26523437 -5.47265625 0.21875 C-4.64000244 0.17685547 -3.80734863 0.13496094 -2.94946289 0.09179688 C-1.96692123 0.04553067 -0.98363035 0 0 0 Z " fill="#C48958" transform="translate(484,342)"/>
<path d="M0 0 C1.30969254 -0.00549866 2.61938507 -0.01099731 3.96876526 -0.0166626 C5.41824707 -0.00250678 6.86772519 0.01203245 8.31719971 0.0269165 C9.84486359 0.0280449 11.37252964 0.02741127 12.90019226 0.02514648 C17.04670725 0.02399809 21.19276008 0.04752734 25.33916759 0.07544231 C29.67266183 0.10043527 34.00616649 0.1027963 38.33972168 0.10754395 C46.54557036 0.11997993 54.75120605 0.15280992 62.95696092 0.1929419 C72.29904657 0.23764027 81.64114236 0.25964178 90.98330832 0.27972364 C110.2005205 0.32154204 129.41753439 0.39190616 148.63458252 0.48101807 C147.31458252 0.81101807 145.99458252 1.14101807 144.63458252 1.48101807 C144.65552979 2.27798096 144.67647705 3.07494385 144.69805908 3.89605713 C144.78121574 7.50758241 144.83324286 11.1189063 144.88458252 14.73101807 C144.91809814 15.98527588 144.95161377 17.23953369 144.98614502 18.53179932 C144.99903564 19.73707275 145.01192627 20.94234619 145.02520752 22.18414307 C145.04615479 23.29434814 145.06710205 24.40455322 145.08868408 25.54840088 C144.51529822 29.25136376 143.55933118 30.19227652 140.63458252 32.48101807 C137.78416824 32.97320938 137.78416824 32.97320938 134.42102051 32.96203613 C133.14498459 32.96753479 131.86894867 32.97303345 130.554245 32.97869873 C129.14254384 32.964543 127.73084649 32.95000378 126.31915283 32.93511963 C124.83089732 32.9339912 123.34263959 32.93462493 121.85438538 32.93688965 C117.81529988 32.93803791 113.77668896 32.91451081 109.73771381 32.88659382 C105.51632909 32.86159868 101.29493364 32.85923966 97.07348633 32.85449219 C89.08013072 32.84205684 81.08699379 32.80922773 73.0937345 32.76909423 C63.99348302 32.72439387 54.89322113 32.70239386 45.79288721 32.68231249 C27.07332831 32.64049553 8.35397299 32.57013267 -10.36541748 32.48101807 C-10.48146846 27.89789723 -10.5526211 23.31515358 -10.61541748 18.73101807 C-10.64893311 17.42906494 -10.68244873 16.12711182 -10.71697998 14.78570557 C-10.72987061 13.53531494 -10.74276123 12.28492432 -10.75604248 10.99664307 C-10.77698975 9.84454346 -10.79793701 8.69244385 -10.81951904 7.50543213 C-10.36541748 4.48101807 -10.36541748 4.48101807 -8.73884201 2.10385513 C-5.64369326 -0.01246331 -3.7379716 -0.012097 0 0 Z " fill="#6CF3C1" transform="translate(64.36541748046875,261.51898193359375)"/>
<path d="M0 0 C22.07701682 -1.01998538 22.07701682 -1.01998538 31.875 7.5 C32.57625 8.325 33.2775 9.15 34 10 C34.70125 10.78375 35.4025 11.5675 36.125 12.375 C40.03504042 17.84905658 41.37337349 22.4438852 41.39872742 29.1288147 C41.40537424 29.81202235 41.41202107 30.49523 41.41886932 31.19914091 C41.43740976 33.47227079 41.43489956 35.74486988 41.43237305 38.01806641 C41.44140013 39.65722895 41.45172967 41.29638475 41.46325684 42.93553162 C41.49086055 47.39103078 41.50012499 51.8464021 41.50611091 56.30197573 C41.51556515 61.02179125 41.54181087 65.74151502 41.56611633 70.46127319 C41.60987195 79.45728627 41.63832202 88.4532817 41.66143972 97.44936883 C41.68798202 107.47422448 41.73216822 117.49897578 41.77767158 127.52376032 C41.85534618 144.71177656 41.91166861 161.89973481 41.94872642 179.08788538 C41.97138038 189.43358897 42.0112265 199.77873441 42.09287167 210.12414742 C42.1313122 215.13359724 42.15921001 220.14307107 42.18515968 225.15259933 C42.19947929 227.35953248 42.21901152 229.56643944 42.24435997 231.77327347 C42.27788279 234.7179235 42.29312845 237.66212628 42.30395508 240.60693359 C42.32568629 241.83751307 42.32568629 241.83751307 42.34785652 243.09295273 C42.33835402 252.67523384 39.67738924 261.00749801 33 268 C25.1721787 275.03097721 18.44100704 276.30671828 8.125 276.125 C7.15046875 276.11597656 6.1759375 276.10695313 5.171875 276.09765625 C2.78099272 276.07421623 0.39062739 276.04140442 -2 276 C-2 275.67 -2 275.34 -2 275 C-0.845 274.773125 0.31 274.54625 1.5 274.3125 C9.20175447 272.35304303 15.78451852 267.80197159 20 261 C22.68778622 254.90731331 23.43235273 250.02254454 23.38095093 243.40480042 C23.3856309 242.46918162 23.39031087 241.53356282 23.39513266 240.56959194 C23.40704933 237.45062647 23.39763831 234.3321031 23.38818359 231.21313477 C23.39225079 228.97042587 23.3975935 226.72771898 23.40411377 224.48501587 C23.41777622 218.40445063 23.41249283 212.3240383 23.40297651 206.24347043 C23.3953735 199.87486949 23.4024274 193.50628152 23.40713501 187.13768005 C23.41294042 175.75744614 23.40362494 164.37728973 23.388357 152.99707132 C23.37495782 142.69096561 23.37728021 132.3849613 23.39111328 122.07885742 C23.40718967 110.09588278 23.41313201 98.11296967 23.40427649 86.1299805 C23.39960452 79.79226716 23.39896202 73.45462358 23.40888596 67.11691475 C23.4175665 61.15705684 23.41151359 55.19738997 23.39420319 49.23755264 C23.39024401 47.05308919 23.39136261 44.86860959 23.39799118 42.6841526 C23.40621923 39.69661408 23.39586955 36.7096833 23.38095093 33.72218323 C23.38764309 32.8628286 23.39433526 32.00347397 23.40123022 31.11807829 C23.31003343 21.66781187 20.6891631 14.81402784 14.19140625 7.9453125 C11.06543411 5.17038536 7.84063679 3.55723298 4 2 C2.66202125 1.34270624 1.3274081 0.67838777 0 0 Z " fill="#685E68" transform="translate(209,220)"/>
<path d="M0 0 C0.66411896 -0.00014603 1.32823792 -0.00029205 2.01248169 -0.0004425 C4.18755464 0.00024905 6.36253983 0.00800566 8.53759766 0.01586914 C10.05359856 0.01773601 11.56960008 0.01915865 13.08560181 0.02015686 C17.06070646 0.02396083 21.03577414 0.03377286 25.01086426 0.04486084 C29.07315572 0.05512069 33.1354532 0.05966425 37.19775391 0.06469727 C45.15740623 0.07539717 53.11702858 0.09244793 61.07666016 0.11352539 C58.06503336 3.220149 55.25829046 5.35289267 51.47509766 7.47680664 C50.35772217 8.10901123 49.24034668 8.74121582 48.08911133 9.39257812 C47.49665619 9.72377655 46.90420105 10.05497498 46.29379272 10.39620972 C44.42291796 11.44209327 42.5565139 12.49557054 40.69116211 13.55126953 C38.10391523 15.01526511 35.51528549 16.476769 32.92578125 17.93676758 C19.92258297 25.27881784 6.98283481 32.7459752 -5.86083984 40.36352539 C-6.98361328 41.02868164 -8.10638672 41.69383789 -9.26318359 42.37915039 C-11.50632311 43.84163783 -13.28508785 45.01036405 -14.92333984 47.11352539 C-16.0223871 53.95204168 -13.74156656 57.96656525 -10.23583984 63.79321289 C-8.92333984 66.11352539 -8.92333984 66.11352539 -8.92333984 68.11352539 C-17.57750436 67.56113191 -24.47778282 63.41361654 -30.35693359 57.12524414 C-36.95501696 48.65139643 -39.889967 38.64388666 -38.57958984 28.01196289 C-36.38096709 18.30137906 -31.19149032 10.62120187 -22.92333984 5.11352539 C-15.46731134 1.25618334 -8.36865063 -0.01555511 0 0 Z " fill="#C38958" transform="translate(188.92333984375,107.886474609375)"/>
<path d="M0 0 C1.56002428 -0.1363128 3.12357176 -0.23259126 4.6875 -0.3125 C5.55761719 -0.37050781 6.42773438 -0.42851562 7.32421875 -0.48828125 C11.11548835 0.20355627 12.7882834 2.01707961 15 5 C17.44214014 8.81280327 19.66078402 12.73900805 21.875 16.6875 C22.53494982 17.85009654 23.19577411 19.01219707 23.85742188 20.17382812 C25.22962386 22.58452347 26.59806082 24.99729692 27.96386719 27.41162109 C31.10749893 32.96126118 34.30670716 38.47884295 37.5 44 C38.7502587 46.16651739 40.00025794 48.33318454 41.25 50.5 C42.178125 52.10875 42.178125 52.10875 43.125 53.75 C48.75 63.5 48.75 63.5 50.62695312 66.75341797 C51.8704051 68.90871311 53.11389436 71.06398673 54.35742188 73.21923828 C57.24462875 78.22337674 60.1315043 83.2277052 63.01696777 88.23284912 C64.02619104 89.98341241 65.03553836 91.73390411 66.04492188 93.484375 C67.3016766 95.66392165 68.55820586 97.84359832 69.81445312 100.0234375 C70.39130859 101.02375 70.96816406 102.0240625 71.5625 103.0546875 C72.12308105 104.03066895 72.68366211 105.00665039 73.26123047 106.01220703 C74.47490273 108.09770565 75.7100949 110.17076388 76.96142578 112.23388672 C77.5954834 113.28592285 78.22954102 114.33795898 78.8828125 115.421875 C79.45918457 116.36385742 80.03555664 117.30583984 80.62939453 118.27636719 C82.37743826 121.75003584 82.83703029 124.79654473 82.9296875 128.6484375 C78.79995785 139.09422427 61.46111586 144.97434867 52.05712891 150.24560547 C49.55016434 151.6842772 47.11772404 153.17380011 44.69921875 154.75390625 C34.4730893 161.24105122 24.80204716 160.88673089 13 160 C15.97027639 157.67645631 19.03095433 155.75181239 22.3046875 153.8828125 C23.87766602 152.98139526 23.87766602 152.98139526 25.48242188 152.06176758 C26.60197266 151.42263428 27.72152344 150.78350098 28.875 150.125 C30.62383337 149.11997619 32.37170915 148.11330033 34.11956787 147.10658264 C38.18994183 144.76222461 42.26229757 142.42146723 46.34082031 140.09130859 C49.3996362 138.34147911 52.45051668 136.57852902 55.5 134.8125 C56.43054199 134.28479004 57.36108398 133.75708008 58.31982422 133.21337891 C59.60010498 132.46773682 59.60010498 132.46773682 60.90625 131.70703125 C61.65197266 131.2788208 62.39769531 130.85061035 63.16601562 130.40942383 C65.36034354 128.72307465 66.11577528 127.62105325 67 125 C67.44700605 120.42372781 66.70741948 117.74170592 64.4296875 113.7890625 C63.87031494 112.80429932 63.31094238 111.81953613 62.73461914 110.80493164 C62.12094482 109.7555542 61.50727051 108.70617676 60.875 107.625 C59.92645142 105.9687561 59.92645142 105.9687561 58.95874023 104.27905273 C56.98636313 100.84431599 54.99561943 97.42127374 53 94 C51.82670855 91.97793094 50.65352676 89.95579825 49.48046875 87.93359375 C47.18235115 83.98102832 44.87510395 80.03394886 42.5625 76.08984375 C38.8678663 69.78429479 35.21159419 63.45698676 31.5625 57.125 C30.94431396 56.05282227 30.32612793 54.98064453 29.68920898 53.87597656 C26.46807196 48.28759863 23.25058136 42.69713486 20.03515625 37.10546875 C18.73189755 34.8410729 17.42851419 32.57674879 16.125 30.3125 C15.50173828 29.228479 14.87847656 28.14445801 14.23632812 27.02758789 C10.40466985 20.38007058 6.52343047 13.76700396 2.43603516 7.27270508 C0.77658161 4.58230482 0 3.23531071 0 0 Z " fill="#04E49B" transform="translate(409,16)"/>
<path d="M0 0 C3.3125 0.9375 3.3125 0.9375 5.3125 2.9375 C7.38499959 3.29818363 9.47189078 3.57861906 11.5625 3.8125 C17.4707168 4.62945476 21.06148656 5.68648656 25.3125 9.9375 C25.48046875 11.93359375 25.48046875 11.93359375 25.5 14.375 C25.51417969 15.17808594 25.52835937 15.98117188 25.54296875 16.80859375 C25.3125 18.9375 25.3125 18.9375 23.3125 20.9375 C23.90417969 21.17984375 24.49585938 21.4221875 25.10546875 21.671875 C30.69518173 24.04271574 35.06096237 26.37540546 39.125 31 C41.14663088 36.00087638 41.57513699 41.94015904 39.4453125 46.99609375 C38.42939374 48.66086573 37.37198717 50.30011074 36.3125 51.9375 C35.92139966 53.9270104 35.57882077 55.92747902 35.3125 57.9375 C30.6861342 58.0612709 26.06073539 58.15191516 21.43310547 58.2121582 C19.85969249 58.23727448 18.28639588 58.27137472 16.71337891 58.31469727 C14.44925228 58.37548399 12.18666978 58.40373582 9.921875 58.42578125 C8.87009064 58.46449089 8.87009064 58.46449089 7.79705811 58.50398254 C4.08423529 58.50610581 2.59214768 58.19734986 -0.16699219 55.63354492 C-2.237779 51.96178853 -1.79867829 49.93774184 -0.6875 45.9375 C0.87109375 44.2265625 0.87109375 44.2265625 2.3125 42.9375 C1.095625 42.56625 -0.12125 42.195 -1.375 41.8125 C-6.80445924 39.77525158 -9.09153782 36.67343517 -12 31.6875 C-13.2734878 26.59354878 -13.87400892 21.05258112 -11.25 16.375 C-10.734375 15.570625 -10.21875 14.76625 -9.6875 13.9375 C-9.51402728 12.44233037 -9.39394304 10.94049435 -9.3125 9.4375 C-9.00510035 5.90240403 -8.66354335 4.90226964 -6.5625 1.8125 C-3.6875 -0.0625 -3.6875 -0.0625 0 0 Z " fill="#72F3C4" transform="translate(318.6875,118.0625)"/>
<path d="M0 0 C6.6 0 13.2 0 20 0 C20 30.69 20 61.38 20 93 C13.4 93 6.8 93 0 93 C0 62.31 0 31.62 0 0 Z " fill="#B5733E" transform="translate(463,250)"/>
<path d="M0 0 C2.8125 -0.25 2.8125 -0.25 6 0 C8.66073799 2.25282855 8.9694639 3.76581299 9.41992188 7.22045898 C9.51065173 14.23614496 9.51065173 14.23614496 9.50097656 17.27172852 C9.5000043 19.42795422 9.54163699 21.58061615 9.5859375 23.73632812 C9.59114535 25.11457595 9.59383268 26.49283608 9.59375 27.87109375 C9.60083984 29.11818115 9.60792969 30.36526855 9.61523438 31.65014648 C8.82052283 35.97722472 7.38290189 37.24914342 4 40 C0.97524166 40.62641239 0.97524166 40.62641239 -2.45875549 40.62818909 C-3.76404205 40.64084305 -5.06932861 40.65349701 -6.41416931 40.66653442 C-7.85367219 40.65521905 -9.29317111 40.64339161 -10.73266602 40.63110352 C-12.25399612 40.63624353 -13.77532026 40.64352543 -15.29663086 40.65278625 C-19.42272925 40.67129688 -23.54818128 40.65836487 -27.67425275 40.63869596 C-31.99255451 40.62230813 -36.31081537 40.63112239 -40.62913513 40.63621521 C-47.87973353 40.64073554 -55.13007389 40.62486896 -62.38061523 40.59692383 C-70.76444548 40.56486001 -79.14781065 40.56489246 -87.53167397 40.5821386 C-95.59683286 40.59799825 -103.66182116 40.59127457 -111.72697258 40.57420158 C-115.15954056 40.56732724 -118.59197196 40.56836739 -122.02453804 40.57574654 C-126.0655029 40.58340382 -130.10593795 40.57130207 -134.14681244 40.54389763 C-135.63028579 40.53700722 -137.11380857 40.53692289 -138.5972805 40.54411316 C-140.62093492 40.55279197 -142.64465169 40.53443304 -144.66822815 40.5146637 C-145.80107018 40.51185678 -146.93391222 40.50904985 -148.1010828 40.50615788 C-151.69911386 39.87793305 -152.90929601 38.97176874 -155 36 C-155.25 33.25 -155.25 33.25 -155 31 C-154.2245518 30.99761165 -153.4491036 30.99522329 -152.65015697 30.99276257 C-133.79720433 30.93367216 -114.94438328 30.85816052 -96.09157085 30.76428509 C-86.97455182 30.71928552 -77.8575722 30.67988054 -68.74047852 30.65356445 C-60.79565862 30.63061798 -52.85096306 30.59725771 -44.90624171 30.55129844 C-40.69806709 30.52732082 -36.49001595 30.50862189 -32.28177452 30.50238609 C-28.32301902 30.49635564 -24.36457967 30.47643041 -20.40594101 30.44572449 C-18.95108418 30.43691137 -17.49618609 30.43322842 -16.04130363 30.43499184 C-14.05860209 30.43663662 -12.07591381 30.41822923 -10.0933075 30.39872742 C-8.98254695 30.39411845 -7.8717864 30.38950949 -6.72736645 30.38476086 C-3.99287099 30.21669905 -3.99287099 30.21669905 -2.1461916 28.65127277 C-0.38151287 26.10897012 -0.56013265 23.86165092 -0.48828125 20.80078125 C-0.45283203 19.59228516 -0.41738281 18.38378906 -0.38085938 17.13867188 C-0.34702148 15.2447168 -0.34702148 15.2447168 -0.3125 13.3125 C-0.27833984 12.03826172 -0.24417969 10.76402344 -0.20898438 9.45117188 C-0.12639216 6.30086897 -0.05727665 3.15084843 0 0 Z " fill="#06E39A" transform="translate(209,263)"/>
<path d="M0 0 C14 0 14 0 17.8125 2.375 C21.08662262 6.30394714 21.12424323 8.21110225 21.12025452 13.27676392 C21.12110894 13.92775759 21.12196337 14.57875127 21.12284368 15.24947202 C21.12449667 17.44059358 21.11898008 19.63163934 21.11352539 21.82275391 C21.11324345 23.38953144 21.11340138 24.9563091 21.1139679 26.52308655 C21.11425562 30.78524038 21.10836297 35.04736625 21.10139394 39.30951357 C21.0951562 43.76048931 21.09455627 48.21146563 21.09336853 52.66244507 C21.09025646 61.09492648 21.08204473 69.52739498 21.07201904 77.9598707 C21.06085406 87.55828166 21.05534648 97.15669323 21.05032361 106.75510907 C21.03986203 126.50341327 21.02226497 146.25170582 21 166 C20.67 166 20.34 166 20 166 C20 135.64 20 105.28 20 74 C13.4 74 6.8 74 0 74 C0 49.58 0 25.16 0 0 Z " fill="#C48958" transform="translate(463,176)"/>
<path d="M0 0 C0.33 0 0.66 0 1 0 C1.99 6.93 1.99 6.93 3 14 C-14.33269927 24.88849057 -32.23191896 34.84681083 -50 45 C-31.85 45.33 -13.7 45.66 5 46 C5 46.33 5 46.66 5 47 C-21.07 47 -47.14 47 -74 47 C-70.36720883 44.09376706 -67.28033488 41.88279307 -63.30078125 39.63671875 C-61.62943115 38.68829102 -61.62943115 38.68829102 -59.92431641 37.72070312 C-58.72038157 37.04296171 -57.51644267 36.36522751 -56.3125 35.6875 C-54.42719761 34.6196677 -52.54281144 33.55023031 -50.65844727 32.48074341 C-49.36722711 31.74804505 -48.07572043 31.01585142 -46.78393555 30.28414917 C-39.11692551 25.93966241 -31.48752603 21.53048724 -23.86474609 17.10888672 C-19.36670992 14.5028427 -14.86858134 11.90795558 -10.30078125 9.42578125 C-9.63224121 9.05904297 -8.96370117 8.69230469 -8.27490234 8.31445312 C-6.60435586 7.4034881 -4.92564541 6.50753458 -3.24609375 5.61328125 C-0.84426206 4.20117178 -0.84426206 4.20117178 -0.16015625 1.79296875 C-0.10730469 1.20128906 -0.05445313 0.60960937 0 0 Z " fill="#CCCEC6" transform="translate(437,130)"/>
<path d="M0 0 C2.375 1.625 2.375 1.625 4 4 C4.5625 7.4375 4.5625 7.4375 4 11 C-0.31499296 16.42140141 -6.36509129 19.43816375 -12.3125 22.8125 C-13.31990234 23.40998047 -14.32730469 24.00746094 -15.36523438 24.62304688 C-21.17678557 27.93582036 -25.2753633 30.01981378 -32 29 C-34.94627965 26.4956623 -35.81147455 24.80551784 -36.6875 21.0625 C-35.4995088 15.77053919 -30.72004881 13.12167394 -26.36547852 10.28198242 C-23.41802985 8.48763245 -20.43804387 6.76644174 -17.4375 5.0625 C-16.42236328 4.46115234 -15.40722656 3.85980469 -14.36132812 3.24023438 C-13.37455078 2.67755859 -12.38777344 2.11488281 -11.37109375 1.53515625 C-10.48349365 1.023479 -9.59589355 0.51180176 -8.68139648 -0.01538086 C-5.34814552 -1.23936348 -3.39599573 -0.91760565 0 0 Z " fill="#6EF4C3" transform="translate(395,109)"/>
<path d="M0 0 C4.47252963 3.06938308 7.18630768 5.86120508 9 11 C9.78089417 16.41203042 9.00375185 20.33900575 6 25 C0.66845782 30.85169264 0.66845782 30.85169264 -3.8125 31.25 C-7.51506015 30.95960313 -9.09555192 30.29298533 -12 28 C-15.63554154 23.15261128 -17.43435247 19.34104916 -17.34375 13.19140625 C-16.48904578 7.74266684 -13.0969972 3.956955 -9.0625 0.4375 C-5.31737104 -1.32041767 -3.88541361 -1.37608399 0 0 Z " fill="#EBEDEE" transform="translate(404,281)"/>
<path d="M0 0 C0.66022156 0.00565979 1.32044312 0.01131958 2.00067139 0.01715088 C4.10015763 0.0394627 6.1979087 0.08964186 8.296875 0.140625 C9.7239336 0.16069706 11.15101908 0.17894661 12.578125 0.1953125 C16.06826793 0.23930807 19.55740199 0.30829624 23.046875 0.390625 C23.18213639 2.63896996 23.27898304 4.88965014 23.359375 7.140625 C23.41738281 8.39359375 23.47539062 9.6465625 23.53515625 10.9375 C23.046875 14.390625 23.046875 14.390625 20.93847656 16.81713867 C17.4996 18.68842873 15.36900826 18.86627533 11.46875 18.81640625 C10.22609375 18.80802734 8.9834375 18.79964844 7.703125 18.79101562 C6.4140625 18.76201172 5.125 18.73300781 3.796875 18.703125 C1.84007812 18.68862305 1.84007812 18.68862305 -0.15625 18.67382812 C-9.7852695 18.5584805 -9.7852695 18.5584805 -10.953125 17.390625 C-11.13171465 15.29146474 -11.22110977 13.18439812 -11.265625 11.078125 C-11.30300781 9.92699219 -11.34039062 8.77585937 -11.37890625 7.58984375 C-10.953125 4.390625 -10.953125 4.390625 -9.36108398 2.21508789 C-6.10880695 -0.24909809 -4.05029267 -0.06864903 0 0 Z " fill="#EBEEF0" transform="translate(182.953125,430.609375)"/>
<path d="M0 0 C0.66022156 0.00565979 1.32044312 0.01131958 2.00067139 0.01715088 C4.10015763 0.0394627 6.1979087 0.08964186 8.296875 0.140625 C9.7239336 0.16069706 11.15101908 0.17894661 12.578125 0.1953125 C16.06826793 0.23930807 19.55740199 0.30829624 23.046875 0.390625 C23.18213639 2.63896996 23.27898304 4.88965014 23.359375 7.140625 C23.41738281 8.39359375 23.47539062 9.6465625 23.53515625 10.9375 C23.046875 14.390625 23.046875 14.390625 20.93847656 16.81713867 C17.4996 18.68842873 15.36900826 18.86627533 11.46875 18.81640625 C10.22609375 18.80802734 8.9834375 18.79964844 7.703125 18.79101562 C6.4140625 18.76201172 5.125 18.73300781 3.796875 18.703125 C1.84007812 18.68862305 1.84007812 18.68862305 -0.15625 18.67382812 C-9.7852695 18.5584805 -9.7852695 18.5584805 -10.953125 17.390625 C-11.13171465 15.29146474 -11.22110977 13.18439812 -11.265625 11.078125 C-11.30300781 9.92699219 -11.34039062 8.77585937 -11.37890625 7.58984375 C-10.953125 4.390625 -10.953125 4.390625 -9.36108398 2.21508789 C-6.10880695 -0.24909809 -4.05029267 -0.06864903 0 0 Z " fill="#EBEEF0" transform="translate(126.953125,430.609375)"/>
<path d="M0 0 C1.29099609 0.00837891 2.58199219 0.01675781 3.91210938 0.02539062 C4.58056885 0.03981201 5.24902832 0.0542334 5.93774414 0.0690918 C7.99194905 0.11336029 10.04498544 0.13055704 12.09960938 0.14257812 C22.13313703 0.25813703 22.13313703 0.25813703 23.30078125 1.42578125 C23.4793709 3.52494151 23.56876602 5.63200813 23.61328125 7.73828125 C23.66935547 9.46498047 23.66935547 9.46498047 23.7265625 11.2265625 C23.30078125 14.42578125 23.30078125 14.42578125 21.69287109 16.59912109 C18.51421098 19.02642616 16.57218966 18.90031655 12.6015625 18.8515625 C11.31056641 18.84318359 10.01957031 18.83480469 8.68945312 18.82617188 C7.68676392 18.80453979 7.68676392 18.80453979 6.66381836 18.7824707 C4.60961345 18.73820221 2.55657706 18.72100546 0.50195312 18.70898438 C-9.53157453 18.59342547 -9.53157453 18.59342547 -10.69921875 17.42578125 C-10.8778084 15.32662099 -10.96720352 13.21955437 -11.01171875 11.11328125 C-11.04910156 9.96214844 -11.08648437 8.81101562 -11.125 7.625 C-10.69921875 4.42578125 -10.69921875 4.42578125 -9.09130859 2.25244141 C-5.91264848 -0.17486366 -3.97062716 -0.04875405 0 0 Z " fill="#EBEEF0" transform="translate(182.69921875,382.57421875)"/>
<path d="M0 0 C1.29099609 0.00837891 2.58199219 0.01675781 3.91210938 0.02539062 C4.58056885 0.03981201 5.24902832 0.0542334 5.93774414 0.0690918 C7.99194905 0.11336029 10.04498544 0.13055704 12.09960938 0.14257812 C22.13313703 0.25813703 22.13313703 0.25813703 23.30078125 1.42578125 C23.4793709 3.52494151 23.56876602 5.63200813 23.61328125 7.73828125 C23.66935547 9.46498047 23.66935547 9.46498047 23.7265625 11.2265625 C23.30078125 14.42578125 23.30078125 14.42578125 21.69287109 16.59912109 C18.51421098 19.02642616 16.57218966 18.90031655 12.6015625 18.8515625 C11.31056641 18.84318359 10.01957031 18.83480469 8.68945312 18.82617188 C7.68676392 18.80453979 7.68676392 18.80453979 6.66381836 18.7824707 C4.60961345 18.73820221 2.55657706 18.72100546 0.50195312 18.70898438 C-9.53157453 18.59342547 -9.53157453 18.59342547 -10.69921875 17.42578125 C-10.8778084 15.32662099 -10.96720352 13.21955437 -11.01171875 11.11328125 C-11.04910156 9.96214844 -11.08648437 8.81101562 -11.125 7.625 C-10.69921875 4.42578125 -10.69921875 4.42578125 -9.09130859 2.25244141 C-5.91264848 -0.17486366 -3.97062716 -0.04875405 0 0 Z " fill="#EBEEF0" transform="translate(126.69921875,382.57421875)"/>
<path d="M0 0 C1.29099609 0.00837891 2.58199219 0.01675781 3.91210938 0.02539062 C4.58056885 0.03981201 5.24902832 0.0542334 5.93774414 0.0690918 C7.99194905 0.11336029 10.04498544 0.13055704 12.09960938 0.14257812 C22.13313703 0.25813703 22.13313703 0.25813703 23.30078125 1.42578125 C23.4793709 3.52494151 23.56876602 5.63200813 23.61328125 7.73828125 C23.66935547 9.46498047 23.66935547 9.46498047 23.7265625 11.2265625 C23.30078125 14.42578125 23.30078125 14.42578125 21.69287109 16.59912109 C18.51421098 19.02642616 16.57218966 18.90031655 12.6015625 18.8515625 C11.31056641 18.84318359 10.01957031 18.83480469 8.68945312 18.82617188 C7.68676392 18.80453979 7.68676392 18.80453979 6.66381836 18.7824707 C4.60961345 18.73820221 2.55657706 18.72100546 0.50195312 18.70898438 C-9.53157453 18.59342547 -9.53157453 18.59342547 -10.69921875 17.42578125 C-10.8778084 15.32662099 -10.96720352 13.21955437 -11.01171875 11.11328125 C-11.04910156 9.96214844 -11.08648437 8.81101562 -11.125 7.625 C-10.69921875 4.42578125 -10.69921875 4.42578125 -9.09130859 2.25244141 C-5.91264848 -0.17486366 -3.97062716 -0.04875405 0 0 Z " fill="#EBEEF0" transform="translate(70.69921875,382.57421875)"/>
<path d="M0 0 C0.66022156 0.00565979 1.32044312 0.01131958 2.00067139 0.01715088 C4.10015763 0.0394627 6.1979087 0.08964186 8.296875 0.140625 C9.7239336 0.16069706 11.15101908 0.17894661 12.578125 0.1953125 C16.06826793 0.23930807 19.55740199 0.30829624 23.046875 0.390625 C23.1826433 2.45128604 23.27921403 4.51455257 23.359375 6.578125 C23.41738281 7.72667969 23.47539063 8.87523437 23.53515625 10.05859375 C23.046875 13.390625 23.046875 13.390625 20.93847656 16.28369141 C17.45909434 18.8189049 15.73345225 18.9881736 11.46875 18.9140625 C10.22609375 18.90246094 8.9834375 18.89085937 7.703125 18.87890625 C6.4140625 18.84152344 5.125 18.80414063 3.796875 18.765625 C2.49234375 18.75144531 1.1878125 18.73726563 -0.15625 18.72265625 C-9.77132937 18.57242063 -9.77132937 18.57242063 -10.953125 17.390625 C-11.13171465 15.29146474 -11.22110977 13.18439812 -11.265625 11.078125 C-11.30300781 9.92699219 -11.34039062 8.77585937 -11.37890625 7.58984375 C-10.953125 4.390625 -10.953125 4.390625 -9.36108398 2.21508789 C-6.10880695 -0.24909809 -4.05029267 -0.06864903 0 0 Z " fill="#EBEEF0" transform="translate(70.953125,430.609375)"/>
<path d="M0 0 C0.68383255 0.00424484 1.3676651 0.00848969 2.07221985 0.01286316 C4.25297686 0.02963522 6.43280434 0.06728218 8.61328125 0.10546875 C10.0930856 0.12051761 11.57290445 0.13420567 13.05273438 0.14648438 C16.67738461 0.17953306 20.30149219 0.23130429 23.92578125 0.29296875 C24.03410294 2.37515237 24.11151666 4.45896004 24.17578125 6.54296875 C24.2221875 7.703125 24.26859375 8.86328125 24.31640625 10.05859375 C23.92578125 13.29296875 23.92578125 13.29296875 22.34472656 15.69042969 C19.07403296 17.85724769 16.87782143 17.74978299 12.97265625 17.68359375 C12.31243469 17.67793396 11.65221313 17.67227417 10.97198486 17.66644287 C8.87249862 17.64413105 6.77474755 17.59395189 4.67578125 17.54296875 C3.24872265 17.52289669 1.82163717 17.50464714 0.39453125 17.48828125 C-3.09561168 17.44428568 -6.58474574 17.37529751 -10.07421875 17.29296875 C-10.15519199 15.02271907 -10.21339579 12.751648 -10.26171875 10.48046875 C-10.29652344 9.21589844 -10.33132812 7.95132812 -10.3671875 6.6484375 C-10.07421875 3.29296875 -10.07421875 3.29296875 -9.00463867 1.36206055 C-6.01021206 -0.29629207 -3.39745554 -0.0416015 0 0 Z " fill="#EBEEF0" transform="translate(70.07421875,335.70703125)"/>
<path d="M0 0 C0.68383255 0.00424484 1.3676651 0.00848969 2.07221985 0.01286316 C4.25297686 0.02963522 6.43280434 0.06728218 8.61328125 0.10546875 C10.0930856 0.12051761 11.57290445 0.13420567 13.05273438 0.14648438 C16.67738461 0.17953306 20.30149219 0.23130429 23.92578125 0.29296875 C24.03410294 2.37515237 24.11151666 4.45896004 24.17578125 6.54296875 C24.2221875 7.703125 24.26859375 8.86328125 24.31640625 10.05859375 C23.92578125 13.29296875 23.92578125 13.29296875 22.34472656 15.69042969 C19.07403296 17.85724769 16.87782143 17.74978299 12.97265625 17.68359375 C12.31243469 17.67793396 11.65221313 17.67227417 10.97198486 17.66644287 C8.87249862 17.64413105 6.77474755 17.59395189 4.67578125 17.54296875 C3.24872265 17.52289669 1.82163717 17.50464714 0.39453125 17.48828125 C-3.09561168 17.44428568 -6.58474574 17.37529751 -10.07421875 17.29296875 C-10.15519199 15.02271907 -10.21339579 12.751648 -10.26171875 10.48046875 C-10.29652344 9.21589844 -10.33132812 7.95132812 -10.3671875 6.6484375 C-10.07421875 3.29296875 -10.07421875 3.29296875 -9.00463867 1.36206055 C-6.01021206 -0.29629207 -3.39745554 -0.0416015 0 0 Z " fill="#EBEEF0" transform="translate(182.07421875,335.70703125)"/>
<path d="M0 0 C0.68383255 0.00424484 1.3676651 0.00848969 2.07221985 0.01286316 C4.25297686 0.02963522 6.43280434 0.06728218 8.61328125 0.10546875 C10.0930856 0.12051761 11.57290445 0.13420567 13.05273438 0.14648438 C16.67738461 0.17953306 20.30149219 0.23130429 23.92578125 0.29296875 C24.03410294 2.37515237 24.11151666 4.45896004 24.17578125 6.54296875 C24.2221875 7.703125 24.26859375 8.86328125 24.31640625 10.05859375 C23.92578125 13.29296875 23.92578125 13.29296875 22.34472656 15.69042969 C19.07403296 17.85724769 16.87782143 17.74978299 12.97265625 17.68359375 C12.31243469 17.67793396 11.65221313 17.67227417 10.97198486 17.66644287 C8.87249862 17.64413105 6.77474755 17.59395189 4.67578125 17.54296875 C3.24872265 17.52289669 1.82163717 17.50464714 0.39453125 17.48828125 C-3.09561168 17.44428568 -6.58474574 17.37529751 -10.07421875 17.29296875 C-10.15519199 15.02271907 -10.21339579 12.751648 -10.26171875 10.48046875 C-10.29652344 9.21589844 -10.33132812 7.95132812 -10.3671875 6.6484375 C-10.07421875 3.29296875 -10.07421875 3.29296875 -9.00463867 1.36206055 C-6.01021206 -0.29629207 -3.39745554 -0.0416015 0 0 Z " fill="#EBEEF0" transform="translate(126.07421875,335.70703125)"/>
<path d="M0 0 C4.34157052 -0.09905303 8.68253854 -0.17155301 13.02490234 -0.21972656 C14.5012559 -0.23981301 15.97753019 -0.26708801 17.45361328 -0.30175781 C19.57864962 -0.35041184 21.70263234 -0.37299673 23.828125 -0.390625 C25.1059082 -0.41157227 26.38369141 -0.43251953 27.70019531 -0.45410156 C31 0 31 0 33.41503906 1.80371094 C35.73726116 5.02162684 35.53087777 7.57852362 35.5 11.5 C35.5103125 12.8096875 35.520625 14.119375 35.53125 15.46875 C34.90865263 19.60719134 34.28943679 20.51923867 31 23 C27.76367188 23.53344727 27.76367188 23.53344727 23.96875 23.56640625 C23.29581909 23.57260483 22.62288818 23.57880341 21.92956543 23.58518982 C20.51083824 23.59227441 19.09202768 23.58913751 17.67333984 23.57641602 C15.50592834 23.56253796 13.34282883 23.59663936 11.17578125 23.63476562 C9.79426978 23.63571683 8.41275292 23.63385791 7.03125 23.62890625 C5.15276367 23.6299939 5.15276367 23.6299939 3.23632812 23.63110352 C0 23 0 23 -4 18 C6.56 17.67 17.12 17.34 28 17 C29.69967317 11.90098049 29.58776871 6.35900683 30 1 C20.1 1 10.2 1 0 1 C0 0.67 0 0.34 0 0 Z " fill="#D0D0D5" transform="translate(176,335)"/>
<path d="M0 0 C4.34157052 -0.09905303 8.68253854 -0.17155301 13.02490234 -0.21972656 C14.5012559 -0.23981301 15.97753019 -0.26708801 17.45361328 -0.30175781 C19.57864962 -0.35041184 21.70263234 -0.37299673 23.828125 -0.390625 C25.1059082 -0.41157227 26.38369141 -0.43251953 27.70019531 -0.45410156 C31 0 31 0 33.41503906 1.80371094 C35.73726116 5.02162684 35.53087777 7.57852362 35.5 11.5 C35.5103125 12.8096875 35.520625 14.119375 35.53125 15.46875 C34.90865263 19.60719134 34.28943679 20.51923867 31 23 C27.76367188 23.53344727 27.76367188 23.53344727 23.96875 23.56640625 C23.29581909 23.57260483 22.62288818 23.57880341 21.92956543 23.58518982 C20.51083824 23.59227441 19.09202768 23.58913751 17.67333984 23.57641602 C15.50592834 23.56253796 13.34282883 23.59663936 11.17578125 23.63476562 C9.79426978 23.63571683 8.41275292 23.63385791 7.03125 23.62890625 C5.15276367 23.6299939 5.15276367 23.6299939 3.23632812 23.63110352 C0 23 0 23 -4 18 C6.56 17.67 17.12 17.34 28 17 C29.69967317 11.90098049 29.58776871 6.35900683 30 1 C20.1 1 10.2 1 0 1 C0 0.67 0 0.34 0 0 Z " fill="#D0D0D5" transform="translate(120,335)"/>
<path d="M0 0 C4.34157052 -0.09905303 8.68253854 -0.17155301 13.02490234 -0.21972656 C14.5012559 -0.23981301 15.97753019 -0.26708801 17.45361328 -0.30175781 C19.57864962 -0.35041184 21.70263234 -0.37299673 23.828125 -0.390625 C25.1059082 -0.41157227 26.38369141 -0.43251953 27.70019531 -0.45410156 C31 0 31 0 33.41503906 1.80371094 C35.73726116 5.02162684 35.53087777 7.57852362 35.5 11.5 C35.5103125 12.8096875 35.520625 14.119375 35.53125 15.46875 C34.90865263 19.60719134 34.28943679 20.51923867 31 23 C27.76367188 23.53344727 27.76367188 23.53344727 23.96875 23.56640625 C23.29581909 23.57260483 22.62288818 23.57880341 21.92956543 23.58518982 C20.51083824 23.59227441 19.09202768 23.58913751 17.67333984 23.57641602 C15.50592834 23.56253796 13.34282883 23.59663936 11.17578125 23.63476562 C9.79426978 23.63571683 8.41275292 23.63385791 7.03125 23.62890625 C5.15276367 23.6299939 5.15276367 23.6299939 3.23632812 23.63110352 C0 23 0 23 -2.43945312 20.46069336 C-3.21192383 19.24265015 -3.21192383 19.24265015 -4 18 C-3.10692139 17.98541748 -2.21384277 17.97083496 -1.29370117 17.95581055 C2.02217278 17.89472923 5.33721899 17.82057522 8.65258789 17.73754883 C10.08704628 17.70430999 11.52163513 17.67627465 12.95629883 17.65356445 C15.01960807 17.61999729 17.08172303 17.56768587 19.14453125 17.51171875 C21.00621948 17.47244263 21.00621948 17.47244263 22.90551758 17.43237305 C26.33207299 17.27038174 26.33207299 17.27038174 29 14 C29.495 7.565 29.495 7.565 30 1 C20.1 1 10.2 1 0 1 C0 0.67 0 0.34 0 0 Z " fill="#D0D0D5" transform="translate(64,335)"/>
<path d="M0 0 C-2.18939607 2.18939607 -4.38259866 4.36437967 -6.625 6.5 C-10.51828349 10.59819315 -11.39461915 13.20016788 -11.265625 18.97265625 C-10.86534094 22.02776546 -9.53351167 24.36235993 -8 27 C-7.67 27.99 -7.34 28.98 -7 30 C-4.90280128 31.02281518 -4.90280128 31.02281518 -2.4375 31.6875 C-1.61121094 31.93886719 -0.78492188 32.19023437 0.06640625 32.44921875 C0.70449219 32.63097656 1.34257812 32.81273437 2 33 C2 33.33 2 33.66 2 34 C-4.93932481 34.50264727 -9.37407472 34.27570321 -15 30 C-18.70586409 25.22138577 -20.43394131 21.31314158 -20.34375 15.19140625 C-19.4804082 9.68760229 -16.14244943 5.89111056 -11.875 2.5625 C-7.67633949 0.28061929 -4.72310962 -0.10495799 0 0 Z " fill="#D1CFD2" transform="translate(399,279)"/>
<path d="M0 0 C3.875 1.875 3.875 1.875 5 3 C5.20743521 5.62257373 5.32445376 8.18639318 5.375 10.8125 C5.43107422 11.90014648 5.43107422 11.90014648 5.48828125 13.00976562 C5.54855698 16.66984207 5.46123575 18.51892101 2.88330078 21.20776367 C-0.57542868 23.35768179 -2.60702007 23.51545913 -6.65625 23.53125 C-8.56083984 23.53898437 -8.56083984 23.53898437 -10.50390625 23.546875 C-11.82261719 23.53140625 -13.14132813 23.5159375 -14.5 23.5 C-16.47806641 23.52320313 -16.47806641 23.52320313 -18.49609375 23.546875 C-19.76582031 23.54171875 -21.03554687 23.5365625 -22.34375 23.53125 C-24.07915039 23.52448242 -24.07915039 23.52448242 -25.84960938 23.51757812 C-29.58796611 22.90340296 -31.27782223 21.56910311 -34 19 C-33.67 18.34 -33.34 17.68 -33 17 C-31.75911621 17.0314209 -31.75911621 17.0314209 -30.49316406 17.06347656 C-26.7455663 17.14661619 -22.99816251 17.19865531 -19.25 17.25 C-17.29707031 17.30027344 -17.29707031 17.30027344 -15.3046875 17.3515625 C-14.05429688 17.36445313 -12.80390625 17.37734375 -11.515625 17.390625 C-10.36352539 17.41157227 -9.21142578 17.43251953 -8.02441406 17.45410156 C-4.34674517 16.90191686 -3.20453476 15.94377995 -1 13 C-0.3039772 9.7374658 -0.3039772 9.7374658 -0.25 6.25 C-0.16492188 4.49429687 -0.16492188 4.49429687 -0.078125 2.703125 C-0.03945312 1.36507813 -0.03945312 1.36507813 0 0 Z " fill="#CECDD2" transform="translate(94,431)"/>
<path d="M0 0 C3.875 1.875 3.875 1.875 5 3 C5.20743521 5.62257373 5.32445376 8.18639318 5.375 10.8125 C5.43107422 11.90014648 5.43107422 11.90014648 5.48828125 13.00976562 C5.54855698 16.66984207 5.46123575 18.51892101 2.88330078 21.20776367 C-0.57542868 23.35768179 -2.60702007 23.51545913 -6.65625 23.53125 C-8.56083984 23.53898437 -8.56083984 23.53898437 -10.50390625 23.546875 C-11.82261719 23.53140625 -13.14132813 23.5159375 -14.5 23.5 C-16.47806641 23.52320313 -16.47806641 23.52320313 -18.49609375 23.546875 C-19.76582031 23.54171875 -21.03554687 23.5365625 -22.34375 23.53125 C-24.07915039 23.52448242 -24.07915039 23.52448242 -25.84960938 23.51757812 C-29.58796611 22.90340296 -31.27782223 21.56910311 -34 19 C-33.67 18.34 -33.34 17.68 -33 17 C-32.17274414 17.01571045 -31.34548828 17.0314209 -30.49316406 17.04760742 C-26.74551223 17.10996304 -22.99796955 17.14899346 -19.25 17.1875 C-17.29707031 17.22520508 -17.29707031 17.22520508 -15.3046875 17.26367188 C-14.05429688 17.27333984 -12.80390625 17.28300781 -11.515625 17.29296875 C-10.36352539 17.3086792 -9.21142578 17.32438965 -8.02441406 17.34057617 C-4.68598708 16.96463933 -3.31708643 16.40310999 -1 14 C-0.29727224 10.58372468 -0.29727224 10.58372468 -0.25 6.8125 C-0.16492188 4.90404297 -0.16492188 4.90404297 -0.078125 2.95703125 C-0.03945312 1.49330078 -0.03945312 1.49330078 0 0 Z " fill="#CECDD2" transform="translate(206,431)"/>
<path d="M0 0 C3.875 1.875 3.875 1.875 5 3 C5.20743521 5.62257373 5.32445376 8.18639318 5.375 10.8125 C5.43107422 11.90014648 5.43107422 11.90014648 5.48828125 13.00976562 C5.54855698 16.66984207 5.46123575 18.51892101 2.88330078 21.20776367 C-0.57542868 23.35768179 -2.60702007 23.51545913 -6.65625 23.53125 C-8.56083984 23.53898437 -8.56083984 23.53898437 -10.50390625 23.546875 C-11.82261719 23.53140625 -13.14132813 23.5159375 -14.5 23.5 C-16.47806641 23.52320313 -16.47806641 23.52320313 -18.49609375 23.546875 C-19.76582031 23.54171875 -21.03554687 23.5365625 -22.34375 23.53125 C-24.07915039 23.52448242 -24.07915039 23.52448242 -25.84960938 23.51757812 C-29.58796611 22.90340296 -31.27782223 21.56910311 -34 19 C-33.67 18.34 -33.34 17.68 -33 17 C-32.17274414 17.01571045 -31.34548828 17.0314209 -30.49316406 17.04760742 C-26.74551223 17.10996304 -22.99796955 17.14899346 -19.25 17.1875 C-17.29707031 17.22520508 -17.29707031 17.22520508 -15.3046875 17.26367188 C-14.05429688 17.27333984 -12.80390625 17.28300781 -11.515625 17.29296875 C-10.36352539 17.3086792 -9.21142578 17.32438965 -8.02441406 17.34057617 C-4.68598708 16.96463933 -3.31708643 16.40310999 -1 14 C-0.29727224 10.58372468 -0.29727224 10.58372468 -0.25 6.8125 C-0.16492188 4.90404297 -0.16492188 4.90404297 -0.078125 2.95703125 C-0.03945312 1.49330078 -0.03945312 1.49330078 0 0 Z " fill="#CECDD2" transform="translate(150,431)"/>
<path d="M0 0 C4.875 1.75 4.875 1.75 6 4 C6.20308225 6.47760344 6.32331994 8.89435735 6.375 11.375 C6.43107422 12.38433594 6.43107422 12.38433594 6.48828125 13.4140625 C6.5234375 15.3984375 6.5234375 15.3984375 6 19 C3.33684251 21.75776562 1.65631247 22.89217433 -2.15039062 23.51757812 C-3.30732422 23.52208984 -4.46425781 23.52660156 -5.65625 23.53125 C-7.56083984 23.53898437 -7.56083984 23.53898437 -9.50390625 23.546875 C-10.82261719 23.53140625 -12.14132813 23.5159375 -13.5 23.5 C-15.47806641 23.52320313 -15.47806641 23.52320313 -17.49609375 23.546875 C-18.76582031 23.54171875 -20.03554687 23.5365625 -21.34375 23.53125 C-23.07915039 23.52448242 -23.07915039 23.52448242 -24.84960938 23.51757812 C-28.58796611 22.90340296 -30.27782223 21.56910311 -33 19 C-32.67 18.34 -32.34 17.68 -32 17 C-31.13721436 17.01571045 -30.27442871 17.0314209 -29.38549805 17.04760742 C-26.18190733 17.09875955 -22.97852485 17.1363616 -19.7746582 17.16479492 C-18.38852081 17.17987397 -17.00243106 17.2003405 -15.61645508 17.22631836 C-13.62341854 17.26273716 -11.63003277 17.27813018 -9.63671875 17.29296875 C-8.43748779 17.3086792 -7.23825684 17.32438965 -6.00268555 17.34057617 C-3.03297056 17.24276217 -3.03297056 17.24276217 -1.10351562 15.69140625 C0.73455524 12.87411532 0.27807108 10.10324912 0.1875 6.8125 C0.16042969 5.54019531 0.13335937 4.26789063 0.10546875 2.95703125 C0.05326172 1.49330078 0.05326172 1.49330078 0 0 Z " fill="#D0D0D5" transform="translate(205,383)"/>
<path d="M0 0 C4.875 1.75 4.875 1.75 6 4 C6.20308225 6.47760344 6.32331994 8.89435735 6.375 11.375 C6.43107422 12.38433594 6.43107422 12.38433594 6.48828125 13.4140625 C6.5234375 15.3984375 6.5234375 15.3984375 6 19 C3.33684251 21.75776562 1.65631247 22.89217433 -2.15039062 23.51757812 C-3.30732422 23.52208984 -4.46425781 23.52660156 -5.65625 23.53125 C-7.56083984 23.53898437 -7.56083984 23.53898437 -9.50390625 23.546875 C-10.82261719 23.53140625 -12.14132813 23.5159375 -13.5 23.5 C-15.47806641 23.52320313 -15.47806641 23.52320313 -17.49609375 23.546875 C-18.76582031 23.54171875 -20.03554687 23.5365625 -21.34375 23.53125 C-23.07915039 23.52448242 -23.07915039 23.52448242 -24.84960938 23.51757812 C-28.58796611 22.90340296 -30.27782223 21.56910311 -33 19 C-32.67 18.34 -32.34 17.68 -32 17 C-31.13721436 17.01571045 -30.27442871 17.0314209 -29.38549805 17.04760742 C-26.18190733 17.09875955 -22.97852485 17.1363616 -19.7746582 17.16479492 C-18.38852081 17.17987397 -17.00243106 17.2003405 -15.61645508 17.22631836 C-13.62341854 17.26273716 -11.63003277 17.27813018 -9.63671875 17.29296875 C-8.43748779 17.3086792 -7.23825684 17.32438965 -6.00268555 17.34057617 C-3.03297056 17.24276217 -3.03297056 17.24276217 -1.10351562 15.69140625 C0.73455524 12.87411532 0.27807108 10.10324912 0.1875 6.8125 C0.16042969 5.54019531 0.13335937 4.26789063 0.10546875 2.95703125 C0.05326172 1.49330078 0.05326172 1.49330078 0 0 Z " fill="#D0CFD5" transform="translate(149,383)"/>
<path d="M0 0 C4.875 1.75 4.875 1.75 6 4 C6.20308225 6.47760344 6.32331994 8.89435735 6.375 11.375 C6.43107422 12.38433594 6.43107422 12.38433594 6.48828125 13.4140625 C6.5234375 15.3984375 6.5234375 15.3984375 6 19 C3.33684251 21.75776562 1.65631247 22.89217433 -2.15039062 23.51757812 C-3.30732422 23.52208984 -4.46425781 23.52660156 -5.65625 23.53125 C-7.56083984 23.53898437 -7.56083984 23.53898437 -9.50390625 23.546875 C-10.82261719 23.53140625 -12.14132813 23.5159375 -13.5 23.5 C-15.47806641 23.52320313 -15.47806641 23.52320313 -17.49609375 23.546875 C-18.76582031 23.54171875 -20.03554687 23.5365625 -21.34375 23.53125 C-23.07915039 23.52448242 -23.07915039 23.52448242 -24.84960938 23.51757812 C-28.58796611 22.90340296 -30.27782223 21.56910311 -33 19 C-32.67 18.34 -32.34 17.68 -32 17 C-31.13721436 17.01571045 -30.27442871 17.0314209 -29.38549805 17.04760742 C-26.18190733 17.09875955 -22.97852485 17.1363616 -19.7746582 17.16479492 C-18.38852081 17.17987397 -17.00243106 17.2003405 -15.61645508 17.22631836 C-13.62341854 17.26273716 -11.63003277 17.27813018 -9.63671875 17.29296875 C-8.43748779 17.3086792 -7.23825684 17.32438965 -6.00268555 17.34057617 C-3.03297056 17.24276217 -3.03297056 17.24276217 -1.10351562 15.69140625 C0.73455524 12.87411532 0.27807108 10.10324912 0.1875 6.8125 C0.16042969 5.54019531 0.13335937 4.26789063 0.10546875 2.95703125 C0.05326172 1.49330078 0.05326172 1.49330078 0 0 Z " fill="#D0D0D5" transform="translate(93,383)"/>
<path d="M0 0 C3.49559107 2.01967484 4.74853216 3.17853838 5.9375 7.0625 C6 10 6 10 4 13 C1.01904297 13.34057617 1.01904297 13.34057617 -2.7578125 13.29296875 C-3.42086395 13.28872391 -4.08391541 13.28447906 -4.76705933 13.28010559 C-6.88678441 13.26329971 -9.00556188 13.22564701 -11.125 13.1875 C-12.56118419 13.17245549 -13.99738328 13.15876668 -15.43359375 13.14648438 C-18.95603764 13.1133909 -22.47792636 13.0615968 -26 13 C-22.69183477 9.47559809 -18.81326707 7.26973256 -14.6875 4.8125 C-13.56698242 4.11737305 -13.56698242 4.11737305 -12.42382812 3.40820312 C-8.16714944 0.87063963 -5.10810701 -0.78061576 0 0 Z " fill="#6FF4C3" transform="translate(299,163)"/>
<path d="M0 0 C60.06 0 120.12 0 182 0 C182 0.33 182 0.66 182 1 C121.94 1 61.88 1 0 1 C0 0.67 0 0.34 0 0 Z " fill="#CCCEC6" transform="translate(181,176)"/>
<path d="M0 0 C0.33 0 0.66 0 1 0 C1 48.84 1 97.68 1 148 C0.67 148 0.34 148 0 148 C0 99.16 0 50.32 0 0 Z " fill="#C48958" transform="translate(250,248)"/>
</svg>
